<mxfile host="app.diagrams.net" modified="2023-11-06T22:46:34.635Z" agent="Mozilla/5.0 (X11; Linux x86_64) AppleWebKit/537.36 (KHTML, like Gecko) Chrome/115.0.0.0 Safari/537.36" etag="x0WvSWOciJfREsAN2kjI" version="22.0.8" type="device">
  <diagram name="Page-1" id="UQdDlhkqtQxvVY6QASZs">
    <mxGraphModel dx="1112" dy="622" grid="1" gridSize="10" guides="1" tooltips="1" connect="1" arrows="1" fold="1" page="1" pageScale="1" pageWidth="850" pageHeight="1100" math="0" shadow="0">
      <root>
        <mxCell id="0" />
        <mxCell id="1" parent="0" />
        <mxCell id="NXOeJF4uARYYLEyeQvnC-37" value="Frontend" style="rounded=1;whiteSpace=wrap;html=1;labelPosition=center;verticalLabelPosition=bottom;align=center;verticalAlign=top;spacing=2;horizontal=1;spacingBottom=0;spacingLeft=0;spacingTop=-24;fillColor=#d5e8d4;strokeColor=#82b366;shadow=0;glass=1;labelBackgroundColor=none;" vertex="1" parent="1">
          <mxGeometry x="210" y="120" width="180" height="320" as="geometry" />
        </mxCell>
        <mxCell id="NXOeJF4uARYYLEyeQvnC-32" value="Backend" style="rounded=1;whiteSpace=wrap;html=1;labelPosition=center;verticalLabelPosition=bottom;align=center;verticalAlign=top;spacing=2;horizontal=1;spacingBottom=0;spacingLeft=0;spacingTop=-24;fillColor=#dae8fc;strokeColor=#6c8ebf;shadow=0;glass=1;labelBackgroundColor=none;" vertex="1" parent="1">
          <mxGeometry x="429" y="120" width="320" height="320" as="geometry" />
        </mxCell>
        <mxCell id="NXOeJF4uARYYLEyeQvnC-14" style="edgeStyle=orthogonalEdgeStyle;rounded=0;orthogonalLoop=1;jettySize=auto;html=1;entryX=0;entryY=0.75;entryDx=0;entryDy=0;labelBackgroundColor=none;" edge="1" parent="1" source="NXOeJF4uARYYLEyeQvnC-6" target="NXOeJF4uARYYLEyeQvnC-10">
          <mxGeometry relative="1" as="geometry">
            <mxPoint x="468" y="234.75" as="targetPoint" />
            <Array as="points">
              <mxPoint x="459" y="336" />
              <mxPoint x="459" y="235" />
            </Array>
          </mxGeometry>
        </mxCell>
        <mxCell id="NXOeJF4uARYYLEyeQvnC-6" value="Mobile app" style="shape=image;verticalLabelPosition=bottom;labelBackgroundColor=none;verticalAlign=top;aspect=fixed;imageAspect=0;image=data:image/png,iVBORw0KGgoAAAANSUhEUgAAAgAAAAIACAYAAAD0eNT6AAAABHNCSVQICAgIfAhkiAAAAAlwSFlzAAAN1wAADdcBQiibeAAAABl0RVh0U29mdHdhcmUAd3d3Lmlua3NjYXBlLm9yZ5vuPBoAADh4SURBVHja7d0HcFR3nuDxscfeMLUzt57du9mqnbm7vZvdmqnbUHt1s3c3c7d7ezeWwNgG7LHIWQKUydGEAYMDBoPDDLYxyWBsoshZnZRzQp0kRJBAVgCEUkvqcO8vSy6MsUHS/71+7/VXVd8qB+j+v7/U7/dRx++EQqHvEA2mOfNf+ZFSrNIGpb1K6UoupRalEBFJq6XvtpXed1vb0Hfb+xHnIhpsbAINdOj/VGmBUqZSgBMzUVgL9N0WxW3yp5yjCACQGoP/V0oOTrhEuk7cRn/FOYsAAMkY/D9XOsKJlchQidvszzmHEQCgwQz+7yltVfJzMiUyZP6+2/D3OKcRAKBHHf4/USrmBEpkisRt+Sec2wgA0MOG/y+V6jlpEpkqcZv+Jec4AgD0TcN/slIXJ0siUyZu25M51xEAoPuH/3Be1kcUES8bHM45jwAA9Q//nynd4eRIFBGJ2/rPOPcRm8Dwf0rJy0mRKKISt/mnOAcCAIrc4f+Y0nlOhkQRmbjtP8a5EABQZAJgLCdBoohuLOdCAECRN/yfVKrmBEgU0YlzwJOcEwEARRYAUjj5EZFSMudEAECRM/y/r9TAiY+I+s4F3+fcCAAoMgCQykmPiO4plXMjAKDIAICFEx4R3ZOFcyMAIPMP/x/yCX9E9IBPDvwh50gAQOYGwCROdkT0gCZxjgQAZG4AHORER0QP6CDnSABA5gYAH/VLRA/8yGDOkQCAzDv8n+AT/4joWz4p8AnOlQCAzAmAH3OSI6Jv6cecKwEAmRMAv+AER0Tf0i84VwIAMicARnKCI6JvaSTnSgBA5gRAHCe4rz7mOTthmXfipCRHzJhZ1umxC4qS5/y2JVzrSUxedXPKtHk5v3kpzvLCi9OtZkockzg2cYz83Om6OM6VAIDMCYDZnOBeCSlD/s7zIyc7oqJealMK3VcwOnqMO3bmwmJt1rM2OG58gi06+qX6B6zFlIljFccsjp2fR901m3MlACAAYMqmzZif/4jDNjh69FRr6tw17WqtJSFpxbXhw8cWR8rgvz9x7GIPGLoAgAAAAQBVmzJtbvZAh9Qzz4wrVOM31aSU1Q0KRJojdfjfc29As9gLBi8AIABAAECVklJXNQ524I6bIO6ulrueZ5+dkBvpw78/sRcMXgBAAIAAgCqNGDExewhDqk3mXdWTJqdkMPi/mtgThi8AIABAAED6k/6GOqDEqwRkreeZZ8aVMPTvfz7AuGKGLwAgAEAAQGri5X1Dv5t6YrasZ/0rl3eXof+17vKqAABAAIAAgNTEb+9Df7JajJSHAGYnvlzDsH9wYm8YwACAAAABAGmJl/NJGFA+Gb+hzohbVMywf3BibxjAAIAAAAEAaY2fmGQf6nAaNnxspZxXI6xuZtg/OLE3DGAAQACAAIC0ZsYvcw11OI0cOUXaSwGjomJqGfhfez+A6wxfAEAAgACA1FLnre35hrf9feQmTEx2SHsPgOcmZjH073uSpbInDF8AQACAAID0xo6Ptw367v9hMW4FEd2y1hKf+PJl5TfeDgb/l7/9d4g9YfgCAAIABABU+dCdQb7vftfshGVu6SAZN9vK8P8isRcMXgBAAIAAgGolJK+8Ll7ON4Dh5P/iU+vUAcmIZydkR/rwF3vA6/8BAAEAAgCqlzJnTfuoUVPFwwHBh9ztXz1z9tJLaq9nwsTkDAUldyLvbv+YOxMmpTgYuACAAAABAE2bMXNRyajRU2zDh48p7388Xtw7IN7xT9wlnTJ3badWa0lMXlX/4m9iLSNGjCtQ1tFk4sHfJI5RHGtiyqp6fg4BAAEAAgBhf5VA8pzftujokws/T0heWWumxDHxswYACAAQACAiAEAAgAAAEQEAAgAEAIgIABAAIABARACAAAABACICAAQACAAQEQAgAEAAgIgAAAEAAgBEBAAIAAAAAEBEAIAAAAAgIgIAAIAAABERAAAABACICAAQACAAQEQAgAAAAQAiAgAEAAgAEBEAIABAAICIAAABAAIARAQACAAQACAiAEAAgAAAEQEAAgAEAIgIABAAIABARACAAAABACICAAQACAAQEQAgAEAAgIgAAAEAAgBEBAAIAJA8ACS+9nFBwuYjGUSkj8RtEgAQACDVARC7v6JkxhFviIj0kbhNAgACAAQAiAAAACAAQACACAAAAAIAAAAAEAEAAEAAAAAAACIAAAAAAAEAAEAEADhfAgACAACACAAQACAAAACIAAABAAIARAQACAAQACAiAEAAgAAAEQEAAgAEAIgIABAAIABARACAAAABACICAAQACAAQEQAgAEAAgIgAAAEAAgBEBAAIABAAIAIAAIAAAAEAIgAAAAgAEAAgAgAAgAAAAAAARAAAABAAAAAAgAgAAAAAQAAAABABAM6VAIAAAAAgAgAEAAgAAAAiAEAAgAAAJ10iAEAAgAAAEQEAAgAEAIgIABAAIABARACAAAABACICAAQACAAQEQAgAEAAgIgAAAEAAgBEBAAIABAAICIAQACAzA2AWWmuruRj5S16KS7NE9DLCT/xwKW25P3KunSQWIte9mV6mjcw8ZinRS9NTfN2AQACAAQAHmHgn8zeYb9avsrR5Ul2h6rie5RCOqqt3T2nzF26zrrDeiRXy8G2/OPcq3krN1uakhfnBuISboZilfXoKLEmsTaxRrFWLffmf1src/+itMT6B+6isu9UFbYphXRUzxOeIveflZc4/iG7wj5NJRAAAAIAZFgArD9rdylD36Ozgf+tNVQuyZ57vLRJ1d/sjniD59ZtsylDtl1vQ/9baj+37kObWLuaezP+uKfp+5XF2Tob+N+aggHPc2ddLgBAAIAAgNK5HGXAVcV3G2n49xesSmh668L5MjUGXPxBZ8fdhPlFBhr8X0msXRyDGnsTfcFZ9lhVYZORhv89df9tTrkNABAAoIgGwGvnrJU6vKt/QAW8iXWJRy+1yh5yzsXrrUYd/v2JY5C9L5OPelof9xbWGXT4f/nQwIhzrkoAQACAIhIAs9Jcvm5vstfIw7+/K+Wr7TKH3Jb3z5UqAzRgdACIYxDHInNv/ry8xG7w4d/bd72F3qlpXh8AIABAEQeAvrv+Q2ZpzZkMr6wh1zk7tdIEw783cSyy9mXkGZfXDMO/P1kPBQAAAgBkKADUXXo5w0wAOJW93S7rsX9lcPaYBQDiWGQ9F+DvsyvsZgLAn14qzgAABAAo4gDQ4026bCYAiJcvytiXNz+8WG6i4d/bhm0XK2TsjXg5nZkA8F1vYTUAIABAEQWAhKOVbcrQDJgJAF2eFLeMk/mZ9R/ZzAYAcUwy9ka8pl7NgfyH7jzfX+elX/v1hWPlf591vvoHlTmtKiMgMOWopw0AEACgiAHA/BPFDWYa/iK/N7FWxpDLXP2u1WwAEMckY28e9xbWyhzAf1Ga0bhmxwf2a3MX5AXiEpoftPZgbHzrncTU8u1b3rL+Xfb5y7IRMO6EpwEAEAAgAAAAAIAGAPiF44xHDP3BvNKiPT7ZPf3wvlwAQACAAAAAAAAGAcBfFtvrS5ctd8h4iWVz0pzSf7acrAQABAAIAAAAAKBjAIjH9QNxCZ9LPrZu8RACACAAQAAAAAAAHQJg+e6PMpR1+NQ6votr11of9xYEAAABAAIAAAAA6AQA8z7ZmanFMaYrCAAABAAIAAAAAKADAPxL+olLyvV3anWca7cP/OEAAEAAgAAAAAAAEgHw52WZzf64hHqNj7X7Xy+eqAAABAAIAAAAABAmAIjH5cNxrLeTUssAAAEAAgAAAACEAQA/zbdcV/NJfw9r5sG9OQCAAAABAAAAADQGQNHylx3h/QTEpCoAQACAAAAAAAAaAuBJT353MC7+TriPWbzbIAAgAEAAAAAAAI0A8NKJg4V6OOa9m960AAACAAQAAAAA0AgA9tW/1cWnKd5NSKkEAAQACAAAAACgEQCakueU6OS4fQCAAAABAAAAADQCgG9W0mW9HPe/K8tsBgAEAAgAAAAAoAEAgrHxd/Vy3P/dftoNAAgAEAAAAABAZQCID+TR03GPOnW4GAAQACAAAAAAgAb3AATiEpr1ctz/mHmuCgAQACAAAAAAgAYA6Jyd5NXLcf/ppewWAEAAgAAAAAAAGgCgPnVeoU6Ou41XARAAIAAAAACARgA4+vprFj0cc0PK3CIAQACAAAAAAAAaAeBf0k9c0sMxb976rg0AEAAgAAAAAIBGAHisqjDoj0uoD/cx/1WBtQ4AEAAgAAAAAICGnwZ44tX1YX0YoDF5bjGfBkgAgAAAAAAAGgPgqYqsO8G4+NvhOt7/e/F4BQAgAEAAAAAAAI0BIPrgnS1h2ceqBYuzH3WNAIAAAAEAAAAAJAPgD915vrb4ZJeWxxmMS7j113np1wAAAQACAAAAAIQJACLxRLxAXEKjRsfZ8+LJg0UDWR8AIABAAAAAAAAVACAadu5ombKGLr287A8AEAAgAAAAAIAGABANP5dWGohLaFLp+LrXf7TVPph1AQACAAQAAAAAUBEAov9cYKltj092yzwu8cFDI08fLh7smgAAAQACAAAAAKgMANEfufI6d2x5yxqMi78zxGPy561Yaf/LYnv9UNYDAAgAEAAAAABAAwD092flmbfOrltnHcQTBNvdi5Zk/UPWuWoZ6wAABAAIAAAAAKAhAPp73FsQEE8SFBhoTppT2jUr8Yr4FL++dXf1zEysa0lMrShe/rIj9tAnOX/syu2Qef0AgAAARRwAZqW5fMrQ7DYTADrcqRUyhtzRN3Y7zAYAcUwy9uYP3EUVsgfwg1Jj0H9D3VPTvD4AQACAIgYAIp8nxWkmAHhKX7HJ2JdXdjjcZgOAOCYZe/Oj0hKbRoNZk57wFDll7AsAIABAhgLAlfLVdjMB4FDG3gwZ+xJ32N2jDM0OEwGgQxyTjL35bxkVGWYCwJ+Xl9gBAAEAijgAfOb4NNNEAOhacjJfynMARHcSFxSYBQDiWGTtS8xJt3gOQJdZAPBPjkuZAIAAAEUcAGKPeIN3XfOLzACA3ILNFllDTrRyd06NSe4F6BDHInNv/lNBmcUMw/+PXEVFyvEEAQABAIo4AIjEb83KAG018vAXz2WIS5NzF/e9Wdf83vCvBhDHIHtfpqV5e570FDkNDoBWcW+GrD0BAAQAyHAAEH1kPZoXrEpoNuLw7/Iku1eckvsb7pcn9cOegHfhWpsySIMGHP5BsXZxDGrszYun3DVPeIrcRhz+j1UVNv+ztTJP6s8KACAAQEYEgGje8ZKGJufiHAMNf39x0ZuWWWmuLjUG3L1t/d3JwkBcYp1Rhr9Yq1iz2vsyLc3b9e+LSsXDAX6jDP8/cRbnjDs+9Nf9AwACAGQaAPS35cLZEkf+e9b6S8uyerxJNcGqhAa95POkuMQrF85kf2RbdTqrWu0Bd29JByru7tv0WVb50tetdxPmFwXiEm4G45R16SCxFrEmsTaxRrFWLfdm9GlX9d9ll9vEM+qf8BS5lN+wG/TS497Cmn9zqTjrb/LLrFEXnKrdbgAAAQAyPACICAAQACAAQEQAgAAAAQAiAgAEAAgAEBEAIABAAIAIAAAAAgAEAIgAAAAgAEAAgAgAAAACAAAAABABAAAAANgEAAAAiAAAAAAABAAAABEAIABAAAAAEAEAAgAEAAAAEQAgAEAAgIgAAAEAAgBEBAAIABAAICIAQACAAAARAQACAAQAiAgAEAAgANB/Mktzd889k+Fc4/jMsT5rl00vrbQdyUo+mX9FWWMwXCf6aftKb41780jhiws2216Yt1EXibWINYm1hW0AHvEEXz6UeeXTT3dmpX+y0aaXju3b6lh/8KJz5hFXNwAgAEAA4BtaeM5Suu3SyvKdziU+pZCOa9lati478URRnSYD7pC7Z3TSekv0sLHXoqJeCuk5sUaxVrFmLfZm8aHcuobds7KDO19qCe18KaTjfB27JpVvPnCyFAAQACAA0FfcUWf7lsItVmWwBnQ++O/v7tqMfXY1B9ykD6ze6BETK/U++L8GAWXNYu1q7s2Jfe/ZlcF6V+eD//4Crj2LbfGHK9sBAAEAinAAeALbKlaVGmzwf6VN+b+zqDL837e4lWHqM9rwvyefOAY19qZkzwqLwQb/V2rbNbk0VvnZBwAEAChiAfBq9k6rkYd/X/75Z+0Vsu/2jx4xwWng4d93T8AEp+yHAzYcOFuhDFG/kQEgsn6ywQoACABQRAIg+VRejTI8O0wAgND2yuVVcWkun6wT+qiEtRajD//+xLHI2pdZR5y+7p3jqow+/PvqWHkwowYAEACgiAPAxvzfW8ww/PtbcvFsgaxBFxU95qZZACCORda+bN1/qMAkw7+34r2rLACAAABFHAA+KF9TYCYAvJH7oZST+dQ9hZ+bZvj3JY5Jxt5k711nMRMAbu+ang8ACABQxAFgp3Npk5kA8H7ZK7ky9mXsa5/lmQ0A4phk7E3T7rhcMwEguDOmCQAQAKCIAsDsY+XNag3iNNfCmmz3vOxKzxzbdW+ytdGbZL/iSbGUeebYHe55eZ86F6sCjx2Vy67KOJmPTn3DajYAiGOSsTf+nWOvmgkAojmHS5oBAAEAihgAxB8vbZA5fE+5FjqVYW/xV8VXh6riQw8p0FWVUOr2pFoPuBbdlAiAWikASH7VfABQjkkOAMbUmg0A8w8VNgAAAgAEAAbYUeW3/bvexOxHGPrfVGetN9m6z7n4NgAAAAAAAAAAAgA6B8Bu55KeG8rgVgZ4zxCG/73dLnbPdQAAAAAAOFcCAAIAOgWA8tv6rc6qhGJJg/8r1Suo2OVc4gcAAAAAEAAgAKAjABxyLaoNVMVfUWP499dRlVD4sXNJJwAAAACAAAABAB0AYK9zcZu/KsGj5vDv7443MRMAAAAAQACAAECYAbDLuSTQ5k3M1WL493fZk2IBAAAAABAAIAAQRgBUelKtWg7/voJnXQvKAQAAAAAEAAgAhAEAnzgX3w1WxTeHAQAhX1VCqWEAMHxcR9SEBSVRqe9Yo1YfzIh67Uy5UsUQK++9LHGZ4rLFdQAAAEAAgACAFgC45kmxhGP495fhnperewBMWlz09IYLtVFvpofUrPc6lOsCAACAAAABAFUB8LFziU8Zwq3hBMCj3gsQFgAMG+uLenmfXRnOQbWH/z0Fe69TXDcAAAAEAAgAqAEA8d794Rz+/W8d/CifHxAOADy9dJdVw8H/1XsDxHUDAABAAIAAgBoAEB/kowMAhEo8cxx6A8DT4+eXKoM4EC4AiOvuXQMAAAAEAAgAyAZAsCr+hh4A0OJNzNIVAKJjglEbLlwN4/D/IrEGsRYAAAAIABAAkAWA3c4l3eKleHoAQHdVQoWuAPDCrJqwD//+xFoAAAAgAEAAQBYADroW1elh+IuCVfF1egLA0zNfydQLAHrXAgAAAAEAAgCyAHDOtaBcLwBQ6lLWFNQNAML45L/BPBkQAAAAAgAEAB4ZAOddC8p0BIBuPQEgavke3QCgdy0AAAAQACAAIAsAh1yLruvoIYAbunoOwKxXM3QDALEWAAAACAAQAJD4JMAuHT0JsFJXAPhNfLVuACDWAgAAAAEAAgCSXwZYrwcA3PUmZuvsfQACURsu1OngZYB1vWsBAACAAAABAJkAaPYmOfQAgHLPHLvu3glw8pLCsANArIE3AgIABAAIAMgGQJZ7Xo4OABDc71pUr8u3Al7xqS1sz/4X181bAQMAAgAEANQAwB7n4nZlALfr/U2AwvZhQMPHt0X99nCW5gAQ1ymuGwAAAAIABADU+jjgG95kazgBkOuel6X3jwOOnrE6WxnMjRoM/8be6+LjgAEAAQACAGoDYJ9z8S1lELeE6bf/S4+6znACoLcRE+9ETV+VE714uyVq/YnCqDcuXH96w4XaoSQuQ1xW72Uql917HYNYGwAAAAQACAAMGACiKk+qJRwAuOieX2wYAOg4AAAACAAQABgUAHY7l/R0ViUUazn867zJ1oGsEQAAAABAAIAAgGQAiD51Lm4OVMVf02L4t3sT83c5lwQAAAAAAAQACACEGQCi466F3mBVfIPa7/r3iXNxy0DXBgAAAAAgAEAAQCUA9H9McE9VgkuN4d/iTcz62Lm4YzDrAgAAAAAQACAAoCIA+t4foO2ONzFT4vD3iScaDmVNAAAAAAACAAQAVAbAvR8Z3FWVMJSPDQ7c9iZlHHItqh3qWgAAAAAABAAIAGgEgP7s7vn54nMDglXxzY8y+ANV8VfEs/xPuBZ6ZK0BAAAAAEAAgADAQ5p9vKxJJgD62+Vc4r/gWlBS7plju+JJsTR6k+zicf3PvUm2auXfSzxzHOKJhGpctwKAa1IAkPq6+QCgHJMcAIy9ZjYAzD1c3AQACABQxABAtNO59JYagzhcvV++Nk/Gvoxdvy/XbAAQxyRjb27tjs0z0/AP7oy5JWNfAAABADIUAD4s/22hmQCwIfcDi4x9mfpx/k2zAUAck4y9ydu71mImALTsmlYIAAgAUMQBYFP+e1YzAWDpxdP5MvZFFBUd87lpAKAci6x9+XD/gXwzAaB0zwoLACAAQBEHgDmns8UT8LrMMPx3VC67GnfU2S5r0I2MW2ExCwDEscjal/jDle3+nWOvmgQAXWsPWjwAgAAARRwAROJucxMAILjo/EVpeyKaftDpix4+rsrow18cgzgWmXvz9v5jJcrwDBodALl710qDEQAgAECGA0Bsmrvno0srnEYGwJbCzTaZA66/ie+erVCGqN/AAPCLY1Bjb9x7FtqMPPx9uyY44464ewAAAQCKWACIZh2ruPNeyRsOAw7/zteyd1hjj3gCagw50YR3Tpcrv0VXG/A3/2qxdrX2RRmeAfsnr1uVYdpptOF//ePkjOTDZXdk7gcAIABAhgRAf8vST+Vvr1xebYDB3/NhxeqilFO51WoNuPseDuh8fsZya1RUzG39D/+Y22KtYs1a7M2qg47qu7umFimDtUfvg79n57jqbfv356mxDwCAAAAZGgBfvknQsYpbSy6eLXgjd5tFvFJAL63P2m2df85aHpfm0mS4fT1PcPL2zJqYVdszR85aZXk+7mWrHhJrEWsSaxNrDMfezD7i7Nx44HT5hU82Wcv2vKybsvaut2zdf6gg9XDpLTWPHwAQACBTAICIAAABAAIARAQACAAQACAiAEAAgAAAEQEAAgAEAIgAAAAgAEAAgAgAAAACAAQAiAAAACAAAAAAABEAAAAAgAAAACACAAAAABAAAABEAIAAAAEAAEAEAAgAEAAAAEQAgAAAAQAiAgAEAAgAEBEAIABAAICIAAABAAIARAQACAAQACAiAEAAgCIeAJM/q7z80vbCjOfey7QO22Qtjd5oceul4W/Z8kf+PtsyZldxztSDrgYtT/Cz0lxdWy6cLbHkbrXWXXo5w+dJqezypLj1kFiLWJNYm1ijWKuWezPvdE3D7uKGnOIbbZbbnT35Xf6gWy+1dflL3Y0d1sOXmjJWXrx6GQAQACAAcF/TDrnvPvtOhj3qzfSQQWp/4cM8q7L2gNoD7vVzlspuT7I3VBUfMkJirWLNqv/Wm+YNpFffsSk/2+0hg3zV3PbZk05U3wUABAAIACiN31NWErUxvc5Aw//LxL0UU/Y761QZcEe8weKiNy3KUO0xyvC/px6xdnEMauzN4nNX6tq6A6UhA34FgsG6t7NvlAAAAgAU0QCYesBVrwzS20Yc/vcgoEyNewJOZW+3G3DwfyVxDGr85t/eHSgLGfgrGArdXnCmph4AEACgiAXA8M22XCMP//5e+KD34QBpQ27JyfxaZYC2Gh0A4hjEscjcG2vNHWvIBF/NHT25AIAAAEUkAMST6cww/PvqmHrAdVPWCb3JuTjXBMO/N3EssvZl4Zmam8rPckfIJF/iyYsAgAAARRwAnn3XUE/6e2gxO4oyZexLXJrHrwzONrMAQByLOCYZe7O/ojEzZKKv6uZOGwAgAEARB4DoTZZKMwFAvHRRxr6sOZPpNdHw700ck4y9cTZ2WM0EgM6eQCUAIABAEQWA6Yc93crQ9JkJAH1PBhzyyfxw5p4MswFAHJOMvTH6k/8e8OWbebSqGwAQAKCIAcDUA64GMw3/3jamS3myW2b+u1azAUAck4y98QeDtSYDQGj+6ZoGAEAAgAAAAAAAAAAAEAAgAAAAAAAAAAAEAAgAAAAAAAAAAAEAAgAAAAAAAABAAIAAAAAAAAAAABAAIAAAAAAAAAAABAAIAAAAAAAAAAABAABgBgBEb7QEZu3MvZy6t8A91KZsy64FABECgIbG2lD1ZfeQu153ORQMBgAAAQACABoAYNIHWTcKapqtdzu7S5RjapP5m1gwGGpubPXlnb900/L8Fls7ADAJALq62kPbdlpCC5blheISmkOxyppkFRffptwoSkJvvW0NNTXfAAAEAAgAqACAj7NqHMFQqEWLu2V7/MEryw+VlgIAgwOgvKI0NDvpitSh/40ltITSjjsAAAEAAgCSABD9Znrw5p2O7DA8PBs4XlJrBQAGBcDH+6zKYA5oM/zvaemK7FAwGAQABAAIAAwRAEcKr9vC+Bytnrn7Cp0AwGAA8FY7lWHco/nw7+/T/TYAQACAAMAQABC3I7dGWXt7OJ+l3dUT8I54y+oDAAYBQE+PLxSf4g3b8P+i9tCNGzUAgAAAAYBBAuBKU1uGHl6qtSe7xg4ADAKAtOP2MA//L1q5JgMAEAAgADBIAHT7AzV6AIDrZgsAMAoA1r2uDwDMTuIeAAIABAAGA4DR79jvilfn6QEAHd3+SgBgEAAkzqnUBQBi44Ohjs67AIAAAAGAAQJgyYGS8pB+vnzi1QgAQOcAEM++j4336QQAodClynIAQACAAMAAASDe9Ecv078nELzKPQAGuQdgVvJV3QDgEd4cCAAQACAA8ICUX+ga9QCA2lvtWQDAIABYtjpLF8M/LuGRfnYBAAEAAgAPqKnVl68HAJwpv2EFAAYBwI6PrboAwPyl+QCAAAABgEECYMt5V064h38wFGqd/GF2HQAwCAAaG+uU375bww4Aqz0HABAAIAAwhHcCDPd7Aex9lPcAAAD6eifAI8fsRngPAABAAIAAwLf04ruO24Fg8GY4hr/4dEA+C8CgnwUgPv0vLI/9J94MtbXdBgAEAAgASPg0wPFbM+sb7nbmajj7A3mXm6yP9BbAAECfABBvCbzlHW0/EGjRstzQ7dv1A/lBAwAEAAgAPELbHdUZPV+8O6BabxDU097VUyHeg2DA6wMA+vs4YPElXoufNLdCxQ8HCoZmJdeETp4e1ENVAIAAAAGAAfTCO/aW1WllxUeLaq3nKm4Ouc/yrtoWflZc8exma+eg1wUA9AmA/q/u7s6Q010ROnjEFtq+yzrkPvnMGioqKQ61t7cMRZwAgAAAAQCjBwD0DQCdfgEAAgAEAAAAAAAAAIAAAAEAAAAAAAAAIABAAAAAAAAAAAAIABAAAAAAAAAAAAIABAAAAAAAAACAAAABAAAAAAAAACAAQAAAAAAAAAAACAAAAD0AYNohd6syNINmAkD0RotXxpA7l7PNZjYAiGOSsTfd/qDXZPM/mHi8uhUAEACgiAGASBmYV8wEgBFvOxwy9uWtC+fLzAYAcUwy9uZ6i89hpunfEwhekbEvAIAAABkKAM9ssWeZCQAvbsuX8ltuwtHKNmVo+k0EAL84Jhl7c9Z722YmANxs7coEAAQAKOIA8MIHeVYzAWDivgqnjH0RdXmS3WYBgDgWWfuy3nbdaSYAWC7fsQIAAgAUcQCYfsjTFr3RctUMw1/cmyFryIk+sBzPNwsAxLHI3Jv61u4sMwx/fyB4NeF4dRsAIABAEQcA0fg9ZSUmeDJg47SD7maZQ050tXyVw+jDXxyD7H2Zc+pyczAYajT6k//ezr4h7XYEAAgAkOEAIBq1NcdiYAS0j91dkid7yImSj1W0+DwpLqMOf7F2cQxq7M22gvo85We63ajDP7+21SJzPwAAAQAyJAD67gkojt5ouWak4T/sLWvxlP3Oa2oMuP5mprm78wvfsigDtdtAw793zWLtau7NsvNXrt3t8hcb7G7/a+/m3CiWvRcAgAAAGRYAfc8JaB/9fq71mS32nKiN6XU6HPp+8Vr/EW87Ml7aXpihrDmo5oC7t3Vn7e7Kkletbe65JcqAbdXh0G8VaxNrFGvVal9ile/BoUtNGddbujL63iPAr7ehHwgG6xrbu3McV1qssh7zBwAEAMhUAPjamwUddN9SfsOu1UsCKFoNtm8fep7AohOFN5aezK/VQ2ItYk162BtlwLYvPXelVi+lnrx8S5OfCQBAAIDMBAAiAgAEAAgAEBEAIABAAICIAAABAAIARAAAABAAIABABAAAAAEAAgBEAAAAEAAAAACACAAAAGITAAAAIAIAAAAAEAAAAEQAgAAAAQAAQAQACAAQAAAARACAAAABACICAAQACAAQEQAgAEAAgIgAAAEAAgBEBAAIABAAICIAQACAAAARAQACAAQAiAgAEAAgAEBEAIAAAAEAIgIABAAIABABAABAAIAAABEAAAAEAAgAEAEAAEAAAAAAACIAAAAIAAAAAEAEAAAAACAAAABUbMqO7KtjXtmbM/G9sxXTDzg7w7mW1JOXm7fm3SwQiX8O51pmH6vq3OCordhd3JCz/PzVq/ysAAACAAQADN+k319wDh89vSA6OuZOVNRLoXvqiX5mvPvFBW/ZZhz2BLVYS8rJy7cv3+q0+4PB2tB9X+K/if8n/owmA+uIN3i+6ratyx90K1ffc+9agqHQnTud/oJX7ded/AwBAAIABAAM1fRD7p6R8WssYtDfN/i/1rDnpxZP2ZlzXc31bCuozwsEQ/Whh3yJPyP+rJprWXruyvXWLn9x6OFfPfl1rZa4tKoefqYAAAEAAgD6T/mNfvioaYUPG/xfLaZ18jZ7tRrrOaf8ph0a4Jf4O2qsZdXFa9XKxbcOZC0tPn+huMeAny0AQACAAICuE3frD2z4f1H0iIkVMw67/TLXsvLi1Rrle98RGvhXh/i7MtcSl+b1d/YEKgaxltB5lUACAAAAACAAAACkNHl75hXlt/n2wQBANCppvUXaUEjzBjq6A+WhQX6JvysuQ9Z6sq7dtYQG/9X+8oWrV/gZAwAEAAgA6LKRsS9bBzv8e4uOaZK1lo2ZdeWhIX4pl1Emaz3BYKhpKGspr2+38jMGAAgAEADQZcNHTisaEgCUZD0hcDCP/T/grvd0WU/8G+pa7vr8RfyMAQACAAQAdNkDXu434GLW7MqSsZbrLT7HUIdubUuXlMfePyltyBrqWsTLA/kZAwAEACiMAHjx7fSTz72XaaP72nju/FCHv2j41OWnZKyn/dFeavetX21d/hIZa8msbj4VkvA1dWfBeX7Wvp64TQIAAgCkOgCGv3GuJOrN9BA9oOiYxiEjYO67OTLW4qkf0pPuer9cN1vsMtby1llXzpDvAQgGG/kZe3DiNgkACAAQAAhnz03NHzIA1h2rl7GWT3OvWoc6dPflXpECgPFbM+uHupamVl8+P2MAgAAAAQB9NmmRZWivAhhzQ9Za5u4rrBzq0FUuwylrPYFA8MZQ1pLhabDwMwYACAAQANBn645/HhUVc2vQAJj9ml3mehpbfXmDHbiNkn/j/iTnin3wd/+Hbo3bmvk5P2MAgAAAAQD9lrQpc1DD/7kpBbLXMvH9rHrx7PnBPONe+bs3Za/nVltXwWAA8KGtKpOfLQBAAIAAgP4bPXOACIj5PGptWp0aa/nA6s1Uvv/+Acxbv/g7aqxl8ofZdYFg8POBDP+rTe0MfwBAAIAAgHGKnrVefCZA28OG/9OjYrOi1p9sVnMtCz4rutTtD1Q/bNiKPyP+rJpreek9R3PtrfZHeV+Ats/yrtr4WQIABAAIABivNUeuRb042xE1bOxlZdgH7vmNvyla3OWfsiVLq7U8u9na6fA0WNp8PeIDee79gKAO8d/E/xN/Rqv1vHfRk9Xc1lVw31sEBxSEXK5uaHVM/yjnGj9DAIAAAAEA4/f6mdaopbvL1bqrf0ADY5OlJ3lPgVsk/jnc6xEPDSw5UFI+6m1bKz8rAIAAAAEAIgIABAAIABARACAAQACAiAAAAQACAEQAAAAQACAAQAQAAAABAAIARAAAABAAAAAAgAgAAAAAwCYAAABABAAAAAAgAAAAiAAAAQACAACACAAQACAAAACIAAABAAIARAQACAAQACAiAEAAgAAAEQEAAgAEAIgIABAAIABARACAAAABgPv69ab0rn/dYmnRS09vTA/o5YQ/bJO1TalFJ7XpZl/evBh44fUzLXppxIYLXQCAAAABgEcY+H91Ksv+/cI8x3fdBe7vVBX2KIV0VNuTzoKyp3Jyrf/lQEauloNtxBbH1XEfl1qmHnDlzjjivakU0lk3xdrEGsVatdybjSs+yi1NWWltnZVaFoqNb1MK6age38wkd1XSUse+xVvsz6gEAgBAAIAMC4B/2m5zKUPfo7OB/639cWl+9v95x9Kk8oALxuwosikDtl2HQ/+bao/ZWWQTa1dzb2JeO9V0M35Bts4G/rfmi0vypK494AIABAAIACj9hzNZNmWgdhtp+Pf3mLew6b9+bC9TY8BFb7R0TDvoLjLQ4P9KYu3iGNTYm2W//aQsGJvQZKThf0/dhxa9ZQMABAAoogHwix32Sh3e1T9QBNT9382WVtlDbuInFVajDv/+xDHI3pdRb5xt9ccl1Bl0+H/50MC8NfsrAQABAIpIAPx6U7rvcXeh18jDv78fFOTZZQ6553+XVaoM0IDRASCOQRyLzL3xJC2zG3z499YVl+QdseGCDwAQAKCIA0DfXf8hs/Q/ttm8sobc9EOeShMM/97Escjal8RXDnnNMPz7k/VQAAAgAECGAsCfFOdnmAkAf3U6yy7rsX9lcPaYBQDiWGQ9F+DTxVvsZgLAlcTFGQCAAABFHAAe9xReNhMAflCY55By9/97WeUmGv69KcdUIWNvvElLHWYCQHdcYjUAIABAEQWA/7fZ0qYMzYCZACDeu0DKy9u+eNmfasM49og3OO94ScOrZ61Okfhn8d/UvE5xTDL2Rrym3kwAUAo8/8a5NgBAAIAiBgD/8q61wUzDv+/VALUyhtzY3SVSn/0/M83dvTX9ZKG3bK3N7028GqqK71YK3Ve3+H/iz4g/K/6OzDWIY5KxN/64hFqTASA07rWTDQCAAAABAAAgDQCJRy+1FRRusgSr4u88YOB/a+LviL8rLgMAAAACAAQAAIABABB7xBM4l7PNFqxKaBzo4P86BBIaxWWJywQAAIAAAAEAAKBTAIjf2Juci3OGOvjvT1zmUO4NAAAAgAAAAQAAoBIAlpzMr+3yJLtlD//+xGWL6wAAAIAAAAEAAKATAKQeL2vue4JfSM3EdYjrAgAAgAAAAQAAEGYAiGfst7rnFas9/PsT1zXQVwkAAABAAIAAAACQDAB36TqrVsO/P3GdAAAAEAAgAAAAwgSANWcyvMpA9msNAHGd4roBAAAgAEAAAACEAQC3nQvzwzD8exPXDQAAAAEAAgAAQGMAbL5wrjRcw78/sQYAAAAIABAAAAAaAsBdus4WbgCINQAAAEAAgAAAANAQAH5v4vVwA0CsAQAAAAIABAAAgEYA6HvyX0gPPcqTAQEAACAAQAAAAEgAwGeOTzP1AgCxFgAAAAgAEAAAABoAwJb3O6teACDWAgAAAAEAAgAAQAMAOEvW6wYAYi0AAAAQACAAAAA0AMD1ihUZegGAWAsAAAAEAAgAAAANAFBe/Lpu7gEQawEAAIAAAAEAAKABAC7mvq8bAIi1AAAAQACAAAAA0AAAe+0HsvUCALEWAAAACAAQAAAAGgBgycn8Wr0AQKwFAAAAAgAEAACARu8E2OVJdod7+Is18E6AAIAAAAEAAKAhAIqL3rSEGwBiDQAAABAAIAAAADQEwOrTWdXKEPaHEQB+sQYAAAAIABAAAAAaAkB0pXy1PVwAENf9qOsEAACAAAABAAAgEQALThTXK8O4LQwAaBPXDQAAAAEAAgAAIAwACNd7AjzKa/8BAAAgAEAAAACoCADRtYqVDq2Gv7iuga4PAAAAAgAEAACACgCYlebytbvnlKk9/MV1iOsCAACAAAABAACgAwCIEo9eam12LspTa/iLyxbXMZi1AQAAQACAAAAAUAkAotgjnoAaHxQkLlNc9mDXBQAAAAEAAgAAQEUA9Pe79FNFPk+Kc6iDX1yGuKyhrgcAAAACAAQAAIAGAPji3gBv8DPHp5mDgYD4O+LvisuQsRYAAAAIABAAAAAaAeDeFp8sqDuf84HtlnNhXpcn2ROsSmhSBn1QJP5Z/Dfx/8SfEX9W9vUDAABAAIAAQG+/3pTuU4Zmt5kA8ISroELGkPvNRwUO2QP4Qc1Mc3eLtLgucUwy9qZ9ZkqFyQDQPWLDBR8AIABAEQMA0XfdBU4zAeCp3FybjH159p0MtxZDWcvEMcnYm/LkFTYzAaBzZrJTxr4AAAIAZCgA/KAgz24mAPz1scwMGfsStTG9RxmaHSYCQIc4Jhl7s33p7zLMBABP0jI7ACAAQBEHgL9Jy8w0EQC6/tfvrVKeAyCaetBVYBYAiGORtS9TXj0mngPQZRYAfLBsayYAIABAEQcApeAfXCooMgMA/sKaY5E15EQj3nbUmORegA5xLDL3xjJvvcUMw//2rDlF0cptAAAQAKBIBEBI/NasDNBWIw//77oKnE9Luov73sbsKrYaHQDiGGTvy/ANF3vEY+dGHv7B2PhWcW+GtD0BAAQAyGgAEP3t/oy873gLmw05/N0F7l++b62RPeT6CkzcV2GbIem1+BoXFGsXx6DG3sStS6vxzUxyG3P4JzRvWLE9TyqKAAABADIiAL54XwBLwx+X5ecYaPj7/21GjuXXm9K7VBr+XzZqa07hjMPeOsMMf2WtYs1q78szGy50Zc9ZKx4O8Btl+NfHz88Z+9qpBun3igAAAgBkVAD094977CV/eTHb+r2S/KzHPYU1j3kLG/SS8tu+S7xy4T+ezrL9zw9s1WoPuHsbtsl698UP87Mm7C23TjvoFm/Ne1OpQSfdFGsSaxNrFGvVcm9mrTtSfWDRZpt4Rn3nzGRXIDahQS/1xCXW1CYszDoz/w3ritV7VbvdAAACAGR4ABARACAAQACAiAAAAQACAEQEAAgAEAAgIgBAAIAAABEAAAAEAAgAEAEAAEAAgAAAEQAAAAQAAAAAIAIAAAAAsAkAAAAQAQAAAAAIAAAAIgBAAIAAAAAgAgAEAAgAAAAiAEAAgAAAEQEAAgAEAIgIABAAIABARACAAAABACICAAQACAAQEQAgAEAAgIgAAAEAAgBEBAAIABAAICIAQACAAAARAQACAAQAiAAAACAAQACACAAAAAIABACIAAAAIAAAAAAAEQAAAMQmAAAAQAQAAAAAIADw8Ka9vLVgwqqdGUSkj8RtEgAQACDVAUBEpg0AAAACAEQEAAgAEAAgIgBAAIAAABEBAAIABACICAAQACAAQEQAgAAAAQAiAgAEAAgAEBEAIABAAICIAAABAAIARAQACAAQACAiAEAAgAAAEQEAAgAEAIgIABAAIABARACAAAABACICAAQACAAQEQAgAAAAiIgAAAAgAEDmLmXu2s6p0+fljho9xfbMM+Pzhg0b44qKeqlJJP5Z/Dfx/8SfEX+WPQMABAAIAJCBi5u1uHzEiInZyqBvUwo9Ym3i74i/yx4CAAIABADIQM1OXF797LMTcgYw9B+YuAxxWewpACAAQACAdN648Qk2ZXj3DHX431OPuEz2FgAQACAAQDosdd7anpGjptokDv6vJC5bXAd7DQAIABAAIP0UGPHs+By1hn9/4jrEdbHfAIAAAAEA0kEvvDjdqvbw709cF3sOAAgAEACgMDdxckqGVsO/P3Gd7D0AIABAAIDCVPKc1beUgXxbawCI6xTXzfcAABAAIABAYWj0C9OsYRj+vYnr5nsAAAgAEAAgjUtIWnFNGcRd4QKAuG6xBr4XAIAAAAEA0rDfvDTTEsbh35tYA98LAEAAgAAAadiwYWMuhRsAYg18LwAAAQACAKRRSSmr6pUBHAw3AMQaxFr4ngAAAgAEAEiDpkydm6OD4d+bWAvfEwBAAIAAAGnQ2PHxNr0AQKyF7wkAIABAAIA0eee/GRa9AECshe8JACAAQACANOj55yc59AIAsRa+JwCAAAABANKgUaOn6eYhALEWvicAgAAAAQDSoJgxs6x6AYBYC98TAEAAgAAAmfQDgPhgIABAAIAAAIW5mbOXVuoFAGItfE8AAAEAAgCkSWuDUVEx9eEHQEy9WAvfDwBAAIAAAGn1SoCRk+1hfwWAsga+FwCAAAABANKwaTPmF4QbAGINfC8AAAEAAgCkccOfGVsaruEvrpvvAQAgAEDGAEAcJzhzFTdrcUW4ACCum++B6YrjXAkAyJwAGMkJznw999wkzV8SKK6TvTdlIzlXAgAyJwB+wQnOfKXOXdM+bNgYl1bDX1yXuE723pT9gnMlACBzAuDHnODMWULyyrqoqJhGDV721yiuiz03bT/mXAkAyJwAeEIpwEnOtG8O5IyOjrmp1vAXly2ug702beLc8ATnSgBA5kVAPSc685aUsqp+2LAxl1S42/+SuGz22NTVc44EAGRuABzkRGfuUuau7Rz9wjTxYUE+CcPfJy5LXCZ7a/oOco4EAGRuAEziRBc5zwt47vnJ4hUCgUEM/oD4uzzeH1FN4hwJAMjcAPihkp+TXSQ9LLC6YfzEJPuIEePzHnKvgE/8GfFnxd9h7yIqcU74IedIAEDmR4CFE17EfoiQPzFlVf2s+KXOaTPm54nEPyf2Pr6/FhhGbhbOjQCAIgMAqZzwiOieUjk3AgCKDAB8X4m7eIko1Hcu+D7nRgBAkYOAFE58RKSUzDkRAFBkAeBJpWpOfkQRnTgHPMk5EQBQ5CFgLCdAoohuLOdCAECRCYDHlM5zEiSKyMRt/zHOhQCAIhcBTyl5ORkSRVTiNv8U50AAQCDgZ0p3OCkSRUTitv4zzn3EJlA/AobzSYFEEfGJf8M55xEAoPsRMFmpi5MkkSkTt+3JnOsIANA3IeCXfGQwkfk+6lfctjnHEQCghyHgJ0rFnDSJTJG4Lf+EcxsBAHpUBHxPaSufHEhk6E/4E7fh73FOIwBAg4HAz5WOcDIlMlTiNvtzzmEEAEgGBH6l5ODESqTrxG30V5yzCACQGhD4qdICpUxeNkiki5f1ZfbdJn/KOYoAAGmFgR8pxSptUNqrlK7kUmrhxEwktZa+21Z6321tQ99t70eci2iw/X8o8x7rTx5XpQAAAABJRU5ErkJggg==;" vertex="1" parent="1">
          <mxGeometry x="250" y="286" width="100" height="100" as="geometry" />
        </mxCell>
        <mxCell id="NXOeJF4uARYYLEyeQvnC-8" style="edgeStyle=orthogonalEdgeStyle;rounded=0;orthogonalLoop=1;jettySize=auto;html=1;startArrow=classic;startFill=1;labelBackgroundColor=none;" edge="1" parent="1" source="NXOeJF4uARYYLEyeQvnC-25" target="NXOeJF4uARYYLEyeQvnC-6">
          <mxGeometry relative="1" as="geometry">
            <mxPoint x="130" y="336" as="sourcePoint" />
          </mxGeometry>
        </mxCell>
        <mxCell id="NXOeJF4uARYYLEyeQvnC-9" value="Database" style="shape=image;verticalLabelPosition=bottom;labelBackgroundColor=none;verticalAlign=top;aspect=fixed;imageAspect=0;image=data:image/png,iVBORw0KGgoAAAANSUhEUgAAAIAAAACACAYAAADDPmHLAAAACXBIWXMAAAOwAAADsAEnxA+tAAAAGXRFWHRTb2Z0d2FyZQB3d3cuaW5rc2NhcGUub3Jnm+48GgAAEVJJREFUeJztnXmMnVd5h5/3W+4ym2e8zDjj2InjxI5DUyU1bcUSNaUqJIEiAiI0CIrahBahAgHaKmoFQmol4I+SKi0RotCibkihaUggYEAlUBYlQBJICPGWTMZ2Zjz7dpdvPW//uON4bM/Yd+Z+d5v5Hmnk0dX1Oefe835neZffCOuAgz+e2xza3k7F2onFDpRBxboE1T4R+hB6UekD7UUQAJROILPYRIBQXHxdQWYRnRFlxiiziMwIZhThJQwjgjnhxrkTN71603RzPnFySLMHsBq+/oPZvigXHbDR61XZi3I1wtUgW5s0pAlFDgnmsAhHYuQpx3OeeNMNvTNNGs+qaVkD+ISqdeAn49cacW5E9bUiegBkd7PHVR3ygog+YVR+hJFH3/zbfc+IiDZ7VMvRUgbwjSdHt4Vx5g9E9RbQ32nik50wOgny/WIQ/ShQ+5H33LDtSLNHdJqmG8BDj40NiO28E2PeisirALvZY6onc15spgvxhGPzAzHx377/5p1PN3M8TTGARx9VZ6Fr6o2i/InCLYDTjHE0i1iVkzMhM+WYvGtN5F3rS1fE2z92yy3iN3osDTWA+58d78qV5J2q8lGBvY3suxWZLEScnA0ByNoSdmWtb+cs90/veP22kUaNoSEGcP+PT+SzTv4uEf4Spa8RfbYL855haMpHF4+IjiWmJ29/o98qveu2398zV+/+62oAqipf/8nk7SrySWBXPftqZ+bKMUNTwVmvuY5EXTn53Adev+MD9ey7bgbw0GNjA5Zlf17hzfXqYz0xNh8xOh+e93pX1h7rsO03vO+mgV/Uo1+rHo0+/PjEm8Syn00nv3oGehw6M+dPR8GPB6a98Mn7vj368Xr0m/gK8NBPJt4ryH1ssJN9EhR8w7GJlS8CfV32lz/w+sF3JtlnoivAwz+d/GtBPk86+WuiK2uRd1d+JmcK8e33Hhw5mGSfiRnAw49P3I7yd0m1t1HpyV342ZktxW/47LdGvpBUf4kYwEM/ndiHyL/SAp7Fdid3gRXgNNPF+I77vjP6xiT6q9kAVFVE5T4gm8B4Njx2FTOiQNE3/55EfzUbwMM/m3k18LoExpICRKa695UD0/e5gyPvq7W/BLYA867a20g5jV+tBQCeoWYnUc0GYCmvqbWNlDPMleKq3+tH8Z5a+0viEJi6eBOi6Bu8qPq8kSiWzMXfdWFqNoAg0k21tpFSOdidnAsu+r5zqPnWVbMBFPzql6yUlRmfDykHq8sasxJYv2tuYnwhqn0UG5zZUszo/Oq/x7j68+KK1GwAx8YbnsSyrpgtxwzPrHrpB+DU6reM86jZACYWQkbnzg9jplycyULEi9PBy8kgqyFjCyNrNJylJOIKfuz5QiLL0UYhNsqLU0ElHWwNky8Cxya8RMaSiAHMlWN+eGx+LZ9lwzFXjnluzGe2vPbDc9mPmU7o7JVY2HZoIqArW+TAZZ1JNbmuKAfKS3MBBb+2pVKNcmg0macfEo7bP3OyjB8qr9rTiUgaGAQoBcpEIWKmHK1puT+NAGGk/PKlUmJjgzokbhwZ8ygFhtde1UXOrUvGWVsw7xnGCyEFr/bDkW3B9ELE0GTyN666ZO6cnAn46lMzvPrKbnZtrtlb2TZ4kWG6EDNTjgnjZE5EGUc4NFJivlyfU3bdUre8UPnuc/Ps3prlwOUddGXXZ8VXKTDMeTFzZYMXJjdJjiXMl2N+PlxOrM1l+6lr68DQpM+JGZ/9l3RwSa9DV9ahMyPYVnueEfxIWfANRT9mwTdECT3pp7EFwlj5xckiYQO87A1J3oxieOZkiUOjcGV/nq68jWNBZ9Ym7wp51yLnCFaLGUUYK+VAKYUxpVApBclP+GlcWygHhl+Nlgnq1MdyNDR7N4zhudEylgiXb82wtQemiqCLrjDXFnKORd61yLhCxgLHFlxbcC0qHpAEMVqZ5NAoYaQEkeJHlZCsHyrxWlx0q0Ck8rmmCiFD4z7N8KU1JX3bqPLChM8LEz6dWYvd23J0ZCzCWFmIYxZWiDA6llQMwqrYgiWy+G/ly1xuAYmNLvYpRHFlUo1RIgORabzrSgDXEUqeYWjSo9jkaGrT8/eLvuGXJyt3246Mxa4tWbpzFsr5+XGRUSKjJOcGaQy2JVgoC57h+FRAKWidEHrTDWAppcBwaLRy6hVga7fLQI9LR6ZiEGETnti14NqCKJTCmLG5iImF1g2WtZQBLEWpRBqXfnl5V+jvcdnU4ZBxLERAtTlLOVSebFsqZ4kgNMyVY8bmA7ywPQwVWtgAlqMcKsNTAZxTSp1xhN68Q1fOIudaZBzBtpdcNbViUALEymL4VTltNyK8rB4nUomQnTlvKrFCHFcydv3QUPAN8+WorSZ6JdrKAFYiiJTxhZDxhWaPpP2omwEUI+XZ2QAE9nQ7bMmsT09gu1M3A3h6xmdyMfQ5Vo65pMPmmh6XDmfjBoguxGXxS9xZvB8V4YsdtzFsDzak37rNxrnOrNFSzHdPeTw1HVBI0Ge+XrizeD/7o2NcEx7ljtL9Des3CQNYVsjoFb0uOftsz4wCJ0sRj457PDbpccqL0iyiRXSJl1Or90DO1tpvzVuAwHGFa899vS9j87rteYYKIUcXwrOdOgoTnmHCC8hYIZfkbS7tsNmcsTdsgfkXO27jjtL9qCr/0vmOav/bcK391mwACj9kGQOASmTrym6XnZ0Ow4WI5wvReXf2wCjDxYjhYkTWhs1Zm21Zm+05m6zdvtZwWdcY7917EEX4wpGbGC70X/D9w/YgH+++a1V9CPrDWsYIyWwB/3mxN2QtYW+Py+sGcuzrOX9rOI0fV84KT88EfGe0zP+NexyaC5jwDEGbHRveu/cg+3uPc03vMHfuTVTV5Qxi16wRUPMK8PBImVdtzrAtd/FrXtauGMJVPS5jXsTxYsxEOV42CqbAXGCYCwxHFzNgc7bFJlfYlLHocSw2ZYQO22rJbUNZuqcn3/6EZ3hsoljzJ6/9DGD0Xc/MBtw4kF82Grfs/wG25xy25xwCA6PliFPlmEk/5kJeXS82eDGMeWeCKTlbuK6vOgNsJF84chN37j2IKnzx6E2Jth2jPDPrg/Bu4LFa2qrZgtyPPvk0cO1g3uHA5kxNLUYGJv2Yca9iDMUqS6V7MxY39OfW3nE7ofDUTMDJUgTwi/Dvf+O6WppLwhG0C2CkHNE5L1y9yV37YCzYnrfZnq88zV6sTAWGuSBmPlDmQkOwzBKRbbFMonry3Hx4evIBLqu1vZoNwBXZFC5uckcXQnyjXNubqXo7uBA5W9iRt9mRP7O8e7FhbtEY5iODK8K+nrUbXbugqvxyLuLFwpnoqGtJb62B5poNIOcI4ZKo2PFihBcr12/OkKnDk5mzLXJ5GMi31p5fT/xY+flMwLh3diJJ3hZqLROp+Rq4JXt+E+NezPdOeZyqof4tpcK4F/P9ce+8yYeKz6RWajaAHfnlFxHfKD+d8nliOqC8Ct2blAqlSHliKuDxSR9/hSzhSztqd+PUvAVszlpsy9lMLGOhACOliFPliCu6HPZ0u3XZFtYTgVGOLYQMFaILXom35Sz6EgixJxIOvrY3w/fGyisO2CgcW4h4oRAx2OGwt9ul00kNYSnlSHmhEDJcjM6LpJ6LjXBtbzLCrIkYQKcjXL85wxPTwQUrYI3CyWLES8WI/rzNrg6H/pydyI2hHTHA+KJHdNwz1UUBBX69L7kHKLGEkMG8Q7FHOVSFXIxSSRIZK8dkbWEwb7M977AlI+u+rFyBKd9wqhzxUile1q9xIfb3uFzakVweT6IZQVd1u2Qt4ZnZ4IL711L8WBkqRAwVIjKWMJCz6M/bbMna68bB48cwFUSMeYbx8uonHSqFL7+2yeHyrmR9HomnhO3qdMjZwlPTwao/aGCUE6WYE6UYBLodYWvWZnPWYpNr02lLSwZ+zkKhGCuzgWE6MEz5EQs1Zg9nF+Md/XWId9QlJ7A/Z3Pj9hxPzwRr9wUoLITKQhgxVKi85FpCb8aixxW6HItOx6LLsWhW5bkfQyEyFCNDITTMhcpcYAgTDP/152yu68vULTeibkmhWUv4zS1ZRkoRv5oPE/EFhEaZ8GLOFchyRcg50GFbZG0ht/iTEcGxKrWEriU4S+oHLUuxF5eTGMWYyu9GIdLFgtHF+sFAFS+u/PixUooNXkSiE30uHY6wf5PL4Ap+lqSoe13AYIfD9rzDC4WI5xfCNe1/FyNUJQxhoREF9XUmYwlXdrvs7nIacjtqSGGIJXBlt8MVXQ4jpYgjC2HVod6NQt4RruhyuazToZGZcA2tDLIELu102NHpMF6OOV6KGPcunASynrGA/pzDrk6b/pzVlCtwU0rDhEo0byBv48fKSDnmVDliKtDVpES3JUIlgLY977Cjw266a7zptYFZW9jd5bC7yyEw+vJdecqP8dfJ0pC1YUvGednH0exJX0rTDWApGUvY2WGzs8OuXAMjZdKPmfYNc2FMMdaaxBYbgkCnXbmubs5YbMk6dFfxp+CaRUsZwFkIdLtCt+uwu6vyUmgqDpb5UM/cvyNDs1RWsjZn/BHumYxlt43c2a1rAMvgWsK2nM22c/I/Q1W8CEqRwTdn7uyBViRlQlMxnkjPaAIYI8SLy4mNYFmV3y0BRwR30X/gWBV/wmnfQtYSOhyLnENbTfRKtJUBrIQrgutCt7tx0sSSItUH2OCk+gAtwmprCZMi1QdoERpSS7gMqT5Ai7DGWsJUH2C9sMZawlQfoFVZrebPcKGfjz35R6vqI9UHaGEaovmT6gO0sD7A2jR/qibVB1ikVfUB1qj5UxWpPsA5pPoAayfVB2gzUn2AVB/g5ddSfYANQqoPsIFJ9QE2KKk+wAYl1QfYoKT6ABuQVB8g1QdI9QFSfYDqSPUBUn2AVB8g1QdInlQfgFQfoK6k+gCrI9UH2KCk+gAbkFQfINUHaLprvOm1gak+QHNpugEsJdUHaDwtZQBnkeoDNITWNYBlSPUBkqetDGAlUn2AtZPqA2xwUn2AFmG1tYRJkeoDtAgNqSVchlQfoEVYYy1hqg+wXlhjLWGqD9CqrFbzZ9ge5OPdd62qj5bQB7As/Y+LvWcj6gM0RPOnFfQB/vtD+39862cO/a8Iv3ex924ofYC1af6sAvnOA3ftfbzWVpK5Bqq+H5GngaqS1TeCPsAaNX+qQ/BsE70/maYS4tbPHP5DEf2vWtpM9QGqQkHe8z8f3lfz8g8JL55v+8zhu1X0k0m1V60+wEDO5re2JlMp0+qocPeDd1396aTaS3z3fOs9h+8EvQ+oS9H+SvoAKx0s1xGxIh968MP7Pptko3X51t5yz+GbLfTfgK31aH8DMiGi737grv3fSrrhuriCv/rhfd/UyHkF8NV6tL+REPhm5HBdPSZ/sf368tZ/OPwOVD8FXF7vvtYVypDA3Q985Oq6BgYasnHefO/RbIeJP6jKX5FuCxdjUtFPe7bzj9/84FV+vTtr6Mnp5nuPZnPGvENU/wbY28i+24AXRfmHoLPwz1/7s1fWKv1TNU05Ot/4iUedzb2X3ILyx8AbqdONoQ0IEH0E5Ev24L5HvnKbNDy7sel3p7ffe3RbZOLbUW4VuAFoLZde8kQIP0D1wTC2vvy1v9g32czBNN0AlnLrPz23xQp4kxG5ReBGoDF/NqPuyJii30fkERzzyIN/vn+q2SM6TUsZwFmoytvu+dU1WNbvKrwGtV4JuodWHnMFBY4p8jPgR5ZG33vgI694ttmDWolW/zLP4i33DPU6VnAgNuZ6S9mrIntBrgYdaM6IZAz0kKgeUTisIk85vvvEV+7es2yWVCvSVgawEm//1PObory/04rsXWoxCOZSERlA2aJIL2gvSB/QLWgGQIU8SiWCJHiilAEUCYAF0BmQWUFnEaZUdQyRExLLqHHi4045e6KdJnol/h+TapJAQ2wLTQAAAABJRU5ErkJggg==;" vertex="1" parent="1">
          <mxGeometry x="629" y="216.25" width="85" height="85" as="geometry" />
        </mxCell>
        <mxCell id="NXOeJF4uARYYLEyeQvnC-12" style="edgeStyle=orthogonalEdgeStyle;rounded=0;orthogonalLoop=1;jettySize=auto;html=1;startArrow=classic;startFill=1;labelBackgroundColor=none;" edge="1" parent="1" source="NXOeJF4uARYYLEyeQvnC-10" target="NXOeJF4uARYYLEyeQvnC-11">
          <mxGeometry relative="1" as="geometry" />
        </mxCell>
        <mxCell id="NXOeJF4uARYYLEyeQvnC-13" style="edgeStyle=orthogonalEdgeStyle;rounded=0;orthogonalLoop=1;jettySize=auto;html=1;startArrow=classicThin;startFill=1;labelBackgroundColor=none;" edge="1" parent="1" source="NXOeJF4uARYYLEyeQvnC-10" target="NXOeJF4uARYYLEyeQvnC-9">
          <mxGeometry relative="1" as="geometry" />
        </mxCell>
        <mxCell id="NXOeJF4uARYYLEyeQvnC-10" value="API" style="shape=image;verticalLabelPosition=top;labelBackgroundColor=none;verticalAlign=bottom;aspect=fixed;imageAspect=0;image=data:image/png,iVBORw0KGgoAAAANSUhEUgAAAIAAAACACAYAAADDPmHLAAAABHNCSVQICAgIfAhkiAAAAAlwSFlzAAADsQAAA7EB9YPtSQAAABl0RVh0U29mdHdhcmUAd3d3Lmlua3NjYXBlLm9yZ5vuPBoAABzDSURBVHic7Z17eFTVuf+/775MZiYXEIp4QdR6vHCRg6Ig1jte2npa7dODP6oEAgnIbRJCKOpRnzO2VhEhIQRIgAQSQPk90l/Vc/rTXrwVqgWU4i2A9lgVqdwDJJPMzJ6993v+IKEzk0xmX4fr53nyx+xZa70rs96991rrvSzCaUjZzJn3g/kXYB4AQLLZXAxEO4n5yfmLFr3qRP9OJsQT3QGnmRUITCVgDYC+AAQHmhTb2xozcvjwvX/ZsmWrA22eNNCJ7oCTPDZ9em9FFL8GkO2SiFY5FrtobnX1YZfazzhO3CEnDQrRcLg3+ACQHZXlES62n3FOKwVgUcxxWwYR5botI5OcVgpwFvOcVYAznLMKcIZzVgHOcM4qwBnOWQU4w7G7TWoUmjlz5lUC82Ui82fPL1r0twzJPaWYOHHi3aKmfU+XpC11dXWvA9Ddlum6ApRNn34xRHE9dP164Nh/VBYIvKMKwpjKysp9bss/FSgsLBwcC4c3hpube3Zcyx8zptUrSXevWLv2PTdlu/oKaB/8twFcn/AF0W0S84Y5M2Zc4Kb8U4HCwsLBSij0QUxResZfV1U1O6woGyZPnHi7m/JdU4DZM2ZcyqK4AcClKYpcoQnCmzNnzjzfKZkE9HOqrUzIKCoqGqKEQh+ompbV1fearoutodAfJ02YcKtTMpNxxRg0e8aMS3VBeIeA/gaK79QE4Y6FCxfusSSrpGQImO9l4N8A3AD3J7Y6gE0g+m9d0/5/xeLFn1hppKioaEi0pWVLqsGPRxAEzZ+dPWrFqlV/siKrOxxXAJOD34EpJZgTCPRTicYTMB7A5dZ66hifg6hBaW5+pWrVqu1GKkwqKBgajkQ2a6rqMSpEFAQ12+cbtayhYYP1rnbGUQWwOPgdpFWCWcXFo4ioDMz34CRbwmqaprU0N39NRDW1q1fPB8BdlTNz5yfjxpPAMQWwOfgddFKCYDAohJqaHmBgDoBr7PfUPXRmHGlqgqpp4Syfb+nRUOiR9evXax3fW7nzk3H6SeCIAsTN9lNN+Mzwuajrt89bvPjb2YHAnTrwHBFd60C7GaOluRktoRBkWQ57srKerq2vf6Zo3Lgh0WjU0p2fjCgIWm529qhqB54EthXAoTs/md1g/gZEIx1sM6OEQiE0NzcDAGRZbtF03a9rmmMueE49CWwpgMN3/mlHvBK4gSgImj8n567lK1e+bbUNywpwdvCNEWptRfPRo661b1cJLM2kzw6+cXKys5GXl+da+5qui22h0B+nWtwsMv0EKJs+/WIWxQ0Ov/PdRgPwFYg+B/M/ALSCuZWAZgBgIA9E2QCyQXQhmK8AcAkcdJs/fPgwwuGwU811QhQE1efx3GrWdmDWGEQQxfWnwODvJua3dOBtlqT3VVX9n6qqqqiZBgKBQFYW0eU683VEdAeAOwBcaLVDPXr2hKqqiMViVpvoFk3XpYim/R5AD5iwIpp6AsycOXOAqOuGdrtOAJ8xsAaatr58yZLP3RAwp6TkSk3XR4MoH8AVZuurmoaDBw5A192z8mb7fPfWrlnzmtHypp4AAvNl5rvkKlEADUS0cn5l5Wa3hc2rrPwMwNMAnp4VCNwAYCIRjQNgaG0viSLOOeccHDp0yL1OiuJwAO4ogMj8meseCsZoJWCZoOsL5i1e/O2J6EB5VdUmAJtKS0ufIl2fTcyTYCAoJSsrC36/H21tba70SxTFjWbKm58EBgJvg+g2s/UcQieiFSxJTyxYsODgCepDlwQCgT4y8CsiKkSa1ZWu6ziwfz80h18FHlluali3rreZOqY9glRBGCMxvwPgKrN1bbJVZ55WsWjRlgzLNURVVdUBAJNnBQIriWgpurFbCIKAvJ49cbipyTH5oiQpkt9veiloepmzefPm1hEjR/5GYL4XwHfM1reACqLHd+3ZM6Fu1ardGZBni79s2bK7X//+tXm5uQoBtyDF00CWJCixGDRVtS1TlCTF5/WOqF216mOzdS3vBJaUlPSVdP1NEA2y2oYBdoPoZwsqK//sogzXKCspuQXMLyLF8lFRFBw8aO9NJomikp2Tc0NNXd02K/Ut29QrKyv3aaJ4F4CdVtvoFqK3PJo29FQdfABYUFm5QWG+BsdemZ3weDzwer2W2xdFUfHm5Y2wOviATaeKhQsX7lGJbgNzo512OsH8Su7Ro/c+u2SJi+ulzFBVVXVAAb4P4KWuvre6TSyJopKTk3PDihUrPrTTP9tbnZs3b24dPnLk/xOYfwCic+22R0TVub16FQQXLnRny+wEsGXLFq1f//4v98jNPRfAdfHfCYKAWCwG1cRcQJQkJc/nG1G9apWtwQcc9AhyaE5Qs2DRoqlO9elkpKy4eBGAQPy1aDRqeHPI7js/Gcf86uLmBJZm6gSsz+3Va7pT/TlZ2bVnTymIfhN/LSsrC6KY/mEsCoLm9flsvfOTcdwruKy4+F0AN5rrBb2l6PoPzRpspldsv1ZjjBUIe0VRrqkqvtyU98WM53ZeoHm0GWB0uXnChAOCTp+rLL62fPaV3U7XC4Jfen15bcsBjGTi1TWlg3+ZqmywoMDbkpv7evyGWocbWXfIstyyet06R23LjirAzwOBu3Wi35usthuyfI3Znb3pFduv1Znfwz/34d+tLh14M4i69Mbtiqnl2z8CeIiBojEAdYJHeGLJjAFdPqunLNg+lYiXdnwWiIYtKR3411QNBgKBPh6ibWhfImqahn370kfK5fp8jyxfs2aegT4bwknXatKJnjFZRwXRz6xs62o6ZiPRCPO9aeWNtxmtP21JY47BwQcAGcAUXdHff3h+48CuCgjECSZyjXFxdw1WVVUdANGDAFQAEEURHk96Z+FwLBYcPXq0Y34KjinArJKSBwAMM1WJ6Ekr6/zJc7/oQcT3JV9nAQVG21BbvFZ+xEsFAa9Nef4j26sd4Ng+AZif6vjszUpvVFRV1Zfn9z/vhHzAQQUg5kdMVtm669tvLf0jkif6EAB/py+YfjrxuZ1Ws3h9DqK74v+YMBbAW0nlLiZRmmtRRid27d37LIBtAOAxoAAAoESjDzsl3xEFmB0I3AlzQRs6M8+ID5owyYQU17M9Hm20pRYJLdWlA9+I/6spHfRCdenAOxl4LKn0uMkV2x0Jal2/fr0GoocB6LIsgyj9tExVVf/k8eNLnZDvzBOAyFRniGhFuz3dNFOe3z6YwfGbKQmTPkqtHN3CnGJCTMQ1swbNBfB63FVRBO61IqcrFlRWvg9gJREhy8A8AACisdijTsi2rQBzAoF+DNxjokorS9ITlgWKmBj/kQjLARw5foFx09SFO6802yylWRExUJ/wWdcdDUolRXmcgTbDrwFFObeoqMjcnKsLbCuASjQeZraUmWusOnMEg29LBP5Z0uUaJO2zM2v5VtrvDgH6kfjPBMHRlLTza2r2g6hWlIy7aOiK8iu7cm0rQHuItlGiInO5VVl78/r+CMB5HZ8Z+OvS0kEfgmlVQp8YBaNfYrOz/O5fviwkbW7xP0y2nxZJ15+XBEExWl6JRm1nD7GlAKUzZlwNE/H5zLzajg8fgZPf76sAoLps4CYAO+KuX9hr1447TDefgsnzPrmMCbOSilsOx0rFvKqq3YIk/V+j5TVN80wuKLjfjkxbCkCC8GNTwgShzqqsooWf9MUxs2oHiq7H/VjMDQl9I7OTwc7T72CQhSnl238iysIGAPHLy+19Wwa44pomCMIyUTA+LKquT7Ejz1aWMGK+t4vfLRV/m19ZaflH87A4nsHyP4Xj5fj9edKogSU8jfb/iYh/MrNiW8+Fpdcc6dxaV/DlUysaP/jnR4j7sL0fAd9JSvXALPCsYJBccZAuX7TovXEPPhjWFMVnpLwai5mzuyRxXAEemz69d1QUR7SHSKWFgH5gNpw7n4EGpMiaYag+c0HCZ+KE9/7SOYP2Titv/AMDP2y/5I3onv8DYJlBET5w+p1MBv6jZuZgs/YOU0iStCmmKIbe77FYLHdCfv4rgiD83Uh5Yj4cI3qxoaHhC6BdAWYFAlMVoucJyAZbHqPu0bT1Vqs+XLFjJFgfEHfpH4cuGPRGcjlm1IOOK0DHa8CoAqTjKDEVV5cNXO1Qe91RBcDwBC8SDnfaFu8OIvrFxHHj1q1cvfpBYVZJyY/b3ZjdPGnjH3bCtYgTJ39MqF//AHXaRTzYglcBxC8xR0yr+GRAcjkTtADYQkxPCB7hsqWZGXysXL36ZUEUre6SpoWZEW5r+1nRuHHzJDoW6uQqxPym1bqTl33gp1Z+ILE9FE4tb0zeD+ggQZF1nQoAGLFTbENUG9Xx4eBlVzd3pWSZQpblr6Ka5mooXjQWmyGB2fUADx2wvGQS2vw/BbhH0uXzuizcVX2i8cHg248Hg7d373THUKsfG3LSHAYlEL0LwFUFUGMxn4Bjtm5XIcDy7D/58W8WBvruye17t502TgQE/DYTcjKRa0/LbWkxNENNZkrFjksA2E6TSmRPiU4EvWX5d0Ysg3bJRLr4r4L19RErFYn1CYhTUmKsXFo2qDBdvSnPf3QuidJutD/dCPjx5PmffSedX9/JxLyVK1vGjhkT01TV1Se0608AAj6zUi8YZAHJdgbGqq5LJ1Lz83/dz4kx8h5BUMdY6ceJRCByL8VYhwy3BeiApSTQB3ruuAlI8Kv729Kyge8arS8iUVkIeMhKP6xCZH3TqwNRFF2flLo/ByBqsVJN17hvwgXGKjMev7Hs8GsA9sddSvTjO+dwG45lGOnop60fm4H4fQ4WmG2fikIZeAK4PgcgoHtn9xR4Ke+3ETRvBHAzGO9HVXGxmfrLH74uNqWicRYxagEQGP+Z/P3UBZ/+J455Mjczac921c6Uih2XEPMCgG8G0MaEtZGj/qfrg5cmzGv6Nu9fsze3z1Uk0I2k8+olZYPtx0vquntpxdqhsuJil/Z+2wUwPzq/quo5q/WnL97RO5UvvhEmPrcz15uj8dLpg7pUxMlzv+hxOBIJrw8O6mSHPzb4+oc4lnkrnrf7Ng+80y2DUAeF+fl/aAuH73JTRqYOjbKMncEHgJWPXNXtK2j5o5elTONJrM9H58EHgNv35W5/EMBaO31LBxPZzx6RBtfnACwIrh/o7CI3p/yGuvnOKXTd9YOq3VcA4FRWgNTzF7I2tzGDDriXY7Yd91cBzKfyceupHvGazvo616Uzu37zuK4AAuDYqWCZRpI8z0giJRzKQAQmwqPLZl39Qap6TqEzu/4EcH0SyIBpH/2Thariy6Pv7uUHdn/RvG/vwVZIooD+5+d+/KNh2fMzIV/TtJ7pS9kjE8agS4IFBdYzIcUxbV7jedMWfHKRE20Zxcfg716UhxuvOR/Dh/TFeX38rr/7AaBw9Oheuqa5foNmYhkoHj3nnMsAWN4Ymbpw55VgrZYZNwECppY3fgZgUvWsQabSomaSycs+8Ishb4CIrmWgCbpQWz17wFaj9cnvvwetrW52EcCxJ4DryZhETRtute7Mim09WdfeAOOmuMtXAvjjjPIdV9vvnfNMm9d4ntjq+xBEcxl4AMAUCPqmqeWNhl24Wdcz4sMgIDGgwhXYhINjMlGWy1Ic15qlQ3+qi+snHJaxCJ0DZiQAC6eVN/6LkTY0TbvN6X4lI0lSWCBm64GaxhmVvkjXEFJnHWNgsNV23WLysg9kMFJF62QB/KN0bQSDQSGmaa4fyuHxehcJ86uq/puZpwBw84VzwZySEkurAR3cnTn5hKSK7w5lT28R3cytmCnthPibr776qa5prk3QiYiz/f61dfX1j0oAUF5VtezRqVNfioniDSyKhjYf2gND5sPgSkLT9dGw4IEsgpbqQCG6OpSBaKHZ9tymPnhpZGpF47tJc5YOmAlpPaRZVU2ly/P6fK8aDQwB0ESy/EJtbe2XQJymzq2uPozEJAhpKSsu/ncYTQl37GSNX8FkdNCSWYMap5RvL5BFrFa1Y6FhJBCzxo9Xzxr4ipm2rKCpnU5GS9t/kYVpOvFmZk4I7yJgSfWsQekcZElRVcPhXpLH07xqzRrLAaK2vA5nFxc/xoDhzGDMPNJqZpB3PlN27j3QdiXrjL59/HzwKo/8AKX32w8GWdift2MKg8cTkAfGe9Dw+NI5g/amq7v1Kx6gC3gLiW7oK6/vT2n9EmvfOHh/U1P45UNHIsjyiLjo/JxNk+7uc2M6p5ai/Pzi1nC4Ml37Hfi93tfr1q79YfqSXWNrH0DT9d8KgmBYAdpP07CkADk+Wbus/3HLLKXL6NHB/tztq7ndHYwBgHAVJPx4cmXjsOUlg3alqpdi8FUdqDYi9+oreu+Ofzcy8HcjHk2qphUbab8DkmVboW+2JhoVixd/gkRXqHTkl5aWWj56zSzTyhu/z9SlL+B3RI0qUtVLMfgaGIUj+pNrNoCJEyeOjCqK4WAQUZKU2lWrXrUj0/ZMM6YoZt7DWYKmldmVaYI7U3/FXXradDP4E6+/mFyNDdSj0RVmymdJkuWQuw5sK0BUUV4Mh8NmXKMmBwKBPnblGoEJ3aVb6fTdpm/4cl3An9B58Ce4PfhF48cPU6JRU5nWPaL4pF25thVg2cqVH0XC4W9NnIiZLR9bDbgOEb+MFKdoEuHXyddExgoA8crZMfhrXOricdRY7CUzyyOPx7OvuqHBsG0hFY5sNkiiWH64qcnwiZhEVDh75syRTsjujqUzB78P4Knk2aJA9LkHSkKevY/2cjYSXcC6HPyC4JfeaeXbp02taFw6peLTJ52wThaOGzcjqijfNVNHlmWzeZm7xLHgs7FjxrSJoujr1asXBGMxbR/n9uo1LBgMGnJ8/GAXNzJwPFFz6CLItxt0mvz1e0e3fL03dH0spqFvbz/O65Nz1Q/+1ZsQsfTXXXyBBsRn/tpwfX9KiEsMLPqon6pKfwAQn3PgKAFjls4a9Lv4spt38XUC8H7HZwZeHN6fOk1I8/Pzs1lRDmmaZixBIABZlltXr1vniLeQY9uNXq93sRKN4khTE9hYlpEhzU1NZvILJ7xjcnYZNzD175fXdMt1F2DUyIsw+Ire6NUjy0gqtk6PM02VliFx8AGgBwMNU5/9+Byj/YlHYv6dmcEHAMnjqbEiqyscU4Da+vpHZFlujUSjaDKoBAQ8NXvGDEPp3JjxSVLlV9//mruZ5TvL9MU7ejPwgxRfn8tZkplsqQCAwnHjHolEIl1tGadEluXWlQ0Nc8zKSoWTBgf2ejxPAsfOwDl8xFByLpEFYbWRVYEu4pdINFj5QPivjClBhHPQzStTYHMu3JPHjr02EomYfo97JekXMHE8fDoctTgtb2iokGW5BQAi4TAOHjpkZGJ4oQd4KZ3b2Ih+9Llw7A6Md8nKmBL0CQ34BsDXKb7WNSbDgasTJkzo06aqf9J13dTvL8tyi5OnhQAOK8CkgoKhmq4fz+OvRKM4ePBg+iPRiG4L5eWtTXcSxrD+tFE4lgYu40oQDJKuM03jLqJ+GVS5bPag7UbaGT16tE+LRBo1VTU9idM1zT+poGCo2Xrd4ZgCFI0bNyQSDm/SNS1hEFVVxYGDBxGNdn8eFAM/7X/++Uu7LYR2JdBxH4D489d9IPzX1q/Zdvbs7lhWNvC1a6/q8/i5vX2QJQF5uR4MvKz3H2tKBxja3Rw9erSY7fF8GovFLG2EabouhiORzdMcVAJHFKBo3Lgh0Wh0i5piNsu6jkOHDqH56NF0ttTJZSUlq4LBYLdGqmGX0FuCjh8hSQl0gmErmlWuGdRn+7/dfiny778K/37Pv+CGoX23GTHyKNGw6JflndFo1NR6PxlNVT3NDiqBbQUoLCwc3N3gxxNqbcWBffsQVbpZhTEXNDc1/bq0tLTbVKlxShAfQj38beaTLuA1Eg6h4ZnAfYqiGPIHTIemqp6WcHjzlMJCM6e0dIktBZhUUDA02tq61cjgd6BqGpoOHUJzc3PKpSIB94ma9nq61cGwS+gtSrRGylm73c96ZoaDe75G/TMBhFqOOhIb0YGqaZ5Qa+smu3MCywpQWFg4OBIOb9JU1dgZJ3EwM0KhEPbt24dQKNTla4GBWz1En5SVlLgaH+8mH//5d3ih/BG0tboTS6Kpqidi80lgSQGs3Pldoes6mpubsX/fPrS1tXVVpC+YXysLBJ5w8qw8t8nPz8+ue2pS3Ru/qYOmuZts1O6TwLQCFBYWDg5HIput3Pmp0DQNR44cwb79+9ESCkFP/NEkEP2y//nnf5AJA5JdJo0dW8KKcqjl6BGjh1LaRlNVTzgS2VxYWGjaTd70hCkWDm90cvDj0VQVLc3NCLW0IMvrhd/vR5bH03GU2lDW9T+XFRevJEV5fH5Nzf507WWSCRMmXKtHo78ORSLJTqQZQVNVTywc3gCgl5l6pp4AEydOvDumKK5HrDIzIuEwmg4dwr69e3G4qQltbW3QVFUAUKR7PF+WFRcvnBMIdBUxlFH+9vF7FxY89NCn0ZaWrYqinJDB7yCmKOc8XFhoKgjH1BNA1LTvmeuSfXRmhCMRhCPHknK1n7HrlySpRJKk6b9/YVHrkJvuwXkXZy4KXdd1bN/yFrZtfA0H9+5+yKD1MyNomnYzkD72oANTCqBLkivn5JhB0zSEw8eX/tLhrRt7fLp1I7K8XvT77gAc3PPNfQAMH7xkAirIz/9J/bMzftF85DDUmOHDvTKLppkaI7MOIUL+mDHNqqq6ebiEbQRR1GRJ+loQhHdFQXh1/H8smZLlyz5uK9B1fHfEJfRlfJ1Nf+e+ooTjsQJtoSMb1swtWQrgB6qm3RZT1YvcDNdyAkmWQ2vWresBE9ZC0x5Bk8aOvTGsKH/SdP2k23HrDtnjgc+fA192LtpaDn8ai0ZbBKIjAMBAHgM5OT16DYxFI3Jra+jkvcNTIAqC6vN4bl2xdu17ZupZcgkrKii4IdzWtlE/xZTgdEUUBM2fk3PX8pUrTR/MYdkn8KwSnBzYGXzAplPoWSU4sdgdfMCmMai2vn5Tjs83ShQER1OaioKgdXgWnQ7IstwiCoKje8KiIKjZPt8ddgYfcCIwpKFhg9fvv1lwSAkkUVRycnOvX71uXV6uz/eIJEldGglOBWRZbvVnZ/989bp1eVm5uUMlUezeK8Yg7Xf+3csaGjbYbcuxuICHx4+/pTUcftPO6kCUJMXn9Y5YUV//YdxloXD8+PlKNPqwqqr+lJVPImRZbpU8npp2793jS7JJBQVD7dpR2u/8UU4MPuCgAgD2lCDF4Ccwefz40mgs9oiiKH1TlTmReDyefbLHM7e2vj5l5hI7SuD04AMOKwBgTQmMDH48RUVFw/RI5BklFrtN0zRXDFNGESVJyZKkN+WsrMdr6uq2GaljRQncGHzABQUAzCmB2cFPZnJBwf2qrk9RY7EbY7FYRhJTy7LcIsnye4IoVluNzzejBG4NPuCSAgDGlMDu4CczIT//FbMHKZvF6/O9aicnTzxGlMDNwQdczBWcbnUgiaKSk519g1ODDwAmMmWdFDJW1Nd/mJWdPSzV6sDJ2X4qXDVu1NbXb/J7PLdKspzgFOeR5SZPTs4wo+/M05m6urpPPTk518keT8KpZZIsh3wezy121/npcH0Hr9040aMoP//7JAgjSBTfcfufOtWoq6v7FECvhwsLR+mqeotA9Jdl9fV/gIMxgKnI1BauXrtmzWtIPM3zLEksq6t7EyacOZzgpLZvn8V9zirAGc5ZBTjDOasAZzhnFeAM56wCnOGcVgpAzLaOgDdIUwZkZIzTSgFiRC+SsRyFliAiJll+wTUBJ4DTSgEaGhq+8Hq9rg2Q3+c7ftLG6cIpE3JtlG0ff/ybESNGyKzrw51yVpVkOezNynqubs2agBPtnUz8L3E4mlh2BEU5AAAAAElFTkSuQmCC;labelPosition=center;align=center;" vertex="1" parent="1">
          <mxGeometry x="494" y="171" width="85" height="85" as="geometry" />
        </mxCell>
        <mxCell id="NXOeJF4uARYYLEyeQvnC-11" value="Chatbot" style="shape=image;verticalLabelPosition=bottom;labelBackgroundColor=none;verticalAlign=top;aspect=fixed;imageAspect=0;image=data:image/png,iVBORw0KGgoAAAANSUhEUgAAAIAAAACACAYAAADDPmHLAAAACXBIWXMAAB9+AAAffgHsHSYHAAAAGXRFWHRTb2Z0d2FyZQB3d3cuaW5rc2NhcGUub3Jnm+48GgAAEylJREFUeJztnXl0VFWex7+/915tqVT2hCSAzWISR4RWQUURDItNUEFaTVi1e+S09IyK0+0cHRVbbNRemKOt2HO6dY5bsyUoLthhEYzgAiJNDyoCgQiyJRCyV7aqeu83f4SEALW9qvfqVZH6nJNzUq/uffdXdb91311+93eBOHHi9F3I28UpFcsGsELzwXQTAdkMiJE2LEhaiHgPQKvWTZj1IYjYaINijQsEMHnzyl8S8/MAbAbYEw4V5JJmrLulpNZoQ2KJcwRQtGnFfAB/McgWLfi6Q5TGfDK+xGm0IbGC0P3PbZvL+gP8vJHGaMAIiywvNNqIWKJHADLL8wFKMNIYLSDwv00pL7cYbUes0CMABhcaaIeWJMFUf5XRRsQKUvc/Z3r7FwUsiDl6l1FYWCHVZJ++UYEyjIBEvcsLBQJkVlDjEZQtVatmHfWWpkcAUTzUCwFFCpwmdApmrJ5Tjdo/gNGfvI+kowIGAAIkFrlgRtkaVvBQ5eqS473TCN6zxvFFwczSxQAvA9DfaFtUQADuJAE7hhWXXdr7jbgAVJBfUjodTLE8ysj1CFhTWFjR00LGBaACgehZo23QgOHVWadmdr+ICyBICorLChi43Gg7tICJftr9f1wAQcLEQ422QSsIyOv+Py6AICES7EbboCE9nyUugD5OXAB9nLgA+jhxAfRx4gLo45wVAMFloB2awsrF81n0plcLwMd9J4sxBNHrylecCznrD8C00UhDNORUUp2w22gjYoUeAUgWfhVAvYG2aAIRLVldUiIbbUes0COAv4+d06BA+RmAmP3yCPioXcj+k9F2xBLnjAI2Tpr7IZhvBRBr/QGFCa+2i53TPhk/3mO0MbHEBZ4z62+es2Hq2rX5HmvzXQAVMiHnvHRJAK7VqPwGAP8INTMBTQqwBwLKNkyYvUcjm3wUxoyLxWcOZz+JV9eptVOntgF468zfOfzk4+UjBYV2hmmAG6DXySUujJmNHArXgaLX/UsNBJzu/l9X3zkvMEBvE9Fj6ybOrIpw2WEhMe32EDyI/HemPXz2BxzJmcBtCtGN6yfNKom1ygeAPatL6hn4wGg7NIAVkt/sfqG/mgn7AP7N+olzVutels4oUB4RIUwAkGK0LaHDr1SWzvyq+5WeLcAJAs/vEHKGXwyVDwAHS2dWsYKp6PUMjSUIvEpSaEHva+pbALfYCVHxl6KFwUtYlp/fOPmeVtX3j3IqV5d8Nqy4bLiH6DEmnkFAP6NtCoAMwjYAL+5bVfIOcO4WetXd2inl5RY2Nx4BkHXeWx4metXD/PTmSbNPhmFwTJE/a0UGyJIUan7yeH4CoqcAZIdtDOF2FsRvu1+a3LKn05l48uC6Wzp9ZwmBoo0rJ0LgUgDp6BpTvgdBfmz9hLv3h3K/vs6Iu9+yd7otD4DpcXTNs4QEKRi1b3WJqnmVkAe2U9euTXDbWn7sYen4pptLjoR6nzhnyZ+1IoNk05Mg/neE8HiOqADi6EdBcVkBBCwGUKwmXygCiHsERSH7V5fs319aUiJAuR7A53qWFRdAFLO3dOb2/aXFYxk0C8D3gdKToKherbjoHgHMLOzad/hmAl8BZm0muog8DPr26ssGfUREfsfAejGsuMzsFvl+Aj0BRrqXJLKsIOfganVrKxeVAL44etRmdbrWAxinTwm8pSPRMuWGgQPb9bl/YAZNfzfFYnE9BtACANazptFL+8uKH1J7v5gUADNTdXXjJbIJgwUgiZksANDY1FTs8nhUdZzUYjGZSpOTkt4BACLuVIBm0Y1DOTkpRyiCcQqHFZdd4hH5F8w0gECb9pfeteL8SZ5giBkBVNXXJ5tloZiYb2dgHHkZLzc2t8Dldutqh9lkQkqSw9tbTQC2Euj9Dkl5e2haWpOuhmhE1Avg5ElnPzfcj4JwH3ptavRGU0sLOl36CsBiNiHZ4VUAvWkF46+iIv0+J8cR1f4OUT0KOFbbeJ+b3PtA+BUCVD4ACIL+YY5EMagy7CD8WhY9+4+fapynt03hEJUtwIkTJxIUyfYGVE6EuFxuNLa06GPUGVKSHDCbTKryMNNKuFrmDTSw8+iLqGsB6urqkhTJthEqKx8ATCYJgqDfRxIEgkll5QMAEc+CJXFDbW1twGdHpIkqARw4wJZ2WXgPwJhQ8hMREmzWwAlDJMFqC7nJJGBsJ6R39zCbNTUqTKJKALaUphcAjA/rHlYLRB1aAVEQYLOFGYGWMTGltnGJNhZpQ9T0AY6eqp9CoHIt7uVyu9HYrG1fIJRnvy8Epsm5/VKiYiteVLQAe5jNBFqq1f3MJhPsCdodd2BPsGlW+QCgEC/dyazdDcMgKgSQUtt0NwBNo3DZbTY4Eu0QhNAbOUEgOBLtsNs0PzsjP7u2cbbWNw2FqPBxZ/CDoeRzud3YsbMS3+w5jNP1zWhqutAFkQRCdr9UJNqtQfcNZEWBs7UDNScbwF4W2JKT7chIS8KIKwbjmpF5obYODwF4M2AqnTG8D3C0pn44CfS1mjxNTa3437c2YPW7n6Kt3ae7W0SwJ1hQ8tNxmHfPZCQlqTtuQRSVYTnp6d/pZFpQRFQAuw8ezJJdKCKiwUxdZxKlOhyZJpPp3mDv8cWO7/Dob173+ms3kpQkO/74zDyMvuayoPO4PK5XG5ud9QBAjHZmPgQTr7s6Ly9i08cREcCBAwcsLR7hOQAPADhnHJyWklQpiVJ+MPf5oHw7Fj23HB45OnewS6KI3y6ci9uKrgsqvcfj2V/f1Fxw3mUXwEsdEj+Rl5ene/OmuwC6Kp82AHSTt/czUtPqBMGrg8M57NpdhV88+CLc7uje/S1JIl55aQFGXZUXMC0rfLq2oSHD+7v0iUOSi/QWge6jgK5fvvfKBwCiwKdtuFxuPLbo9aivfADweGQ8ufit4Jal/X52Lmz20DPaWeYdn6OARYsWCV+NuazAQ3I2QjxNZKgtKUVhXiD421ZNCDg1uvLtLaiuiZ3oNcer61D2zqeYO3OC33RE5PezE+jBXQcO/FHPPsEFAjiz8+fX24EFgJIdzpEoyWSB38oHQEE8htasDc4xVrKZYU1PhPOY9mIhUUDSoEx01LWgs7EtYPp3Pvg8oAAQuAW2sCxOBrAsSDNVc44Aple8ntIhN5YDuF6Lm6eJ4Z/edvRYLQ4d9r/TTJAEXLtwGvJnXQ8SBTiPN+DzR0tRs12bXeg5Y/Iw9r9nwZbZtZhXtWYnti18B7LL9yOp6lA1jp04jQG5Ph7xQSKwvmHqz1Fgh2xZBo0qHwBMGizKVB4MHK7oivkTUDB3DEjsKi+xfyrG/8/PeyosHGxZDhS+fM859xp6xyiMeGBSwLwHqk6EXX73cFkvemqo6KPlkwHcqmdhoVBbF9i1bvBtV15wzZxkRc6YoEaXfsm5IR9mx4VLzD+aPDxg3pO1jWGXrze9f6JzDLPCH0HE5SEf8/2+rmuBIgfeHhCo/xMNnI0UShRY0gaQlZEcMM2Rjd9ecM3t7ED1Z5Vhl1/9eSVczR0XXP9hXeDZ62BsN5oeAXhzsw4XtxL+Jpq8IbkB0+x++SNUvb+r53VHnRNbFixD26nmsMtvr21Bxf1voq2m61HECqNy1Zf49i8fB8x76dDAtgeCGLr6Eeq6Glgvhz+JNXBAJoYOzkbVoRqfaeRODz57eCV2PrcWtkwHmg6ehOLRbgdXzbaDeHvcs0i8JB0dp51wOy9sEc4nb2hu2CMAAFCIdA2opetMYGVnIzzsf7MKB3gfAO6YFpyLYEedEw37qjWt/G5YYbQcPh1U5QPAHVODsjmQoZ0kyhuCKjBEdBVAq+zBtlbfv1wA8HDgyppx5zjkZqdpZZbuDMjNQMkdYwOmY2a/5xow00t6rwzqvhbwUfNRfN/p2z+vI4iVPbPJhN89fa+mbll6IUkiFj95D0ymIJ6uDKfvt1Bh5Xbdj6nVXQAeZrxRtxefOqu9Pg5a3ME1qVeNGIJFj8+GFNzOHEPoWg6+GyOvvDRwYgCyItd5udzJTEusSkfRsGHDdD/5JCIuYR5mrGs6gq3OE8izpCBdtPTMEmYoDuQmBDcAua3oOmRmJOORha+hocnnj8cQ0lIcWPLMPFwzMvjJJwXKVhDeA7p6+wpRFYnyhpFGOIQUbVpRBWBIpArupr81EU/nB35e9qa5uQ2v/W0jyt7dCmdrcC2IXiTarZhx5zjcO3cyHA51s7aCIF+em5GxVyfTgsJwAQDAU3ljMNCmfhrC7fbgq12V+Prbw6ita4qYm1hysh2Z6ckYMXwQrrkqP7jn/YXsGpCVOlJr29QSFV7Bm0//gJ8PVD8RaTJJuOG6y3HDdTF4qDfjRaNNAKJkX8C2xhM42RldTp76Qvv6Z6WsMNoKIEoEILOCFce/u4gO5PALQ8EDRBQV/m1RIQAA2OM8jYrTPxhthv4wXhiQnbLZaDO6ObsaCIS/chImpTX7sNfpbWh8ccDgjTVZKf9ltB29ObsayDB0OAJ0bcn68+FdqGxtMNoUPdhiJfmuUUT6BjFSydlHgEirDLSjhw7Fgxe+34EvG6uNNkU7CMvcrY1FmZmZ+savCYGzLivMVLR55WaEGaBBS8amDcRd2QWwS9G/BuCDOgAPD8hKNXwTqC96nR5OTC5pBgBVGzX15NP6o1hYuRUbTh9ChxKd28F84GTiJXCJBdFc+YAXn/zCirJEm+x5koFfQgcvoVCxiRJGJmXjyuR+KLCnwiZGXavQyIQtxHjPJipr0tPTDe9UB4NPr8Up5eUWmOqvYkHMARSpV4YhzPR7DcqWAbwOYtWhUgQiGpaUmT7IkpTlkMyWm9IH/58I39MIbe0dk9we931qyjBJplcSbNZN/tIQKR0KqFkQlO/7p6fH5JH1qt1WNTo5dBOAh9dPmh2Rx80/9h68j0B/VZOHwfNH/sulr+hlU7QQ6bWAnQx+ZMOkORURLjeODyI1E3iUwPNHf1Z5Xbzyowu9W4AGIv5Du+B68ZPx/9qxTufC4qhHLwG4AHojpk4H76OoFoBAQp2fDrcCYKVA/ET5xNl9YGUn9lHdB1g/ftZhsNeh28eKwNeunzR7bvnEOfHKjxFCegSQm4vZjMUATQRwFAIvXT9hjiZhXgFg7c6dCWhypbbXHaspKSlRPQXIzFJNjTPVJcgOAGhubc5Q3Oo2iwgmIeOHk41DAMCsiC3Z2YkNoazhl5WVibb0AdlINjdMHTUqcGSJCBM121c/+GzHMEHmBxk0FeDuTXVuAAcZWG4m8bWicaO8rhAxs3DiVMP1ioBpxHQLGPnBhJ5RBcMFQiUTlwsKv5+blbbd1wli67fuzHGzMg9Q5gA0FMCZaUs6AfAHMvHS6eNGGxofsBvDBVBRUSG1CPYl1BUt1J/Tfwsz3z+tcPTfui8wM52obSph8LPQONRsEBwE6In+mcmrex8W9eGWL3/GwFIA/qJTyCC8mCi3PTp+/HhDPYMMFUBFRYXkFBLeB3BLsHmY+alphaN/e6y2OZ9YXs7AKB1NDMIg7GAS5g7MSj6wdsuXTwFYpCL33xOVtulGisBQl7AWwb4EKiofAIho0T/3ff8EWN5ueOUDAOFaYmX7P/cefhzAUypz3+oUbFqsq4SMYS3A2oqdl0GQv4HKjmiyIxFDBuTKCDF0nV4wIB8+ekJsdKresSSzSD+eduO1e/SwKxCGtQAkyP8BlZVvs1gwqH+OgiirfAAgQPxR/xzFZlEdGU0khe/Xw6ZgMEwAXb394BEFAUMG5kIgihpP5vMRBBIGd9moLiND1XehJYZ8mWUVFYm9hnpBkZmWGhPbwy0mE7LSU9VmG7Bhw+6A5yLqgSECsCkWVdGTJFEM5Us1jKz0NJgkdXNsLqk1RSdz/GKIANqzk2vhZ0HhfNJTknU5CUwvREFAarKqIJXKme8k4hjyrZZ0BT7YF2z6ZEfAgOJRR3KiCpsZe0siEAzCG8Z1AgnvBpNOEkVdD4PUC7vNGnw0E+Kgvgs9MEwAEkx/AhBwo4TNajV+vjoEiAg2a1BDwhbFjZf1tscXhgnglnFX1xL4PwOlM5ujv+fvi2BGLQz86vZJo/2HQ9cRw39cn+z8hltafa+SZqWnon9WZgQt0o7jp2pxqs73PkdHgg2F14wwtA4MjxCSZE+AJIpocrZC8RJaNornfQLiy3ZREJHssMNmMf4cacMFAAAJVgtsFjPaOjvR2emCW1agKDIEQYQlBiZ/fGExmSBJIhRFgUgCJFGExWpGgsUCipJI4lEhAKCr02S3WmG3ntvjt8RwH8BiNqFfWnRPYMVu+xpHE+IC6OPEBdDHiQugjxMXQB8nLoA+TlwAfZy4APo4cQH0caJBAP437cVyAOHAB2Jpf7qVSqJBAMf8valwTIWHOwclsACORMIOf0SDAPyGTe90ucFK7DUDrDA6Xf69vIh5eYTM8YnhAlBabYsB2ubrfWZGs7MVsfUsYDS3OgOdifhFu8PybKQs8kVUrElWHDpkTengBxg8nUA53tJIkmROsFlSJMkkiwJFZUhxWeF0t8cttrV1NMqy7PXnz+BqAGsckvLnvLy88I9WjRMnTpyQ+X/YAjYYlRplIAAAAABJRU5ErkJggg==;labelPosition=center;align=center;" vertex="1" parent="1">
          <mxGeometry x="494" y="301" width="85" height="85" as="geometry" />
        </mxCell>
        <mxCell id="NXOeJF4uARYYLEyeQvnC-23" style="edgeStyle=orthogonalEdgeStyle;rounded=0;orthogonalLoop=1;jettySize=auto;html=1;entryX=1;entryY=0.5;entryDx=0;entryDy=0;labelBackgroundColor=none;" edge="1" parent="1" source="NXOeJF4uARYYLEyeQvnC-15" target="NXOeJF4uARYYLEyeQvnC-22">
          <mxGeometry relative="1" as="geometry" />
        </mxCell>
        <mxCell id="NXOeJF4uARYYLEyeQvnC-31" style="edgeStyle=orthogonalEdgeStyle;rounded=0;orthogonalLoop=1;jettySize=auto;html=1;entryX=0;entryY=0.25;entryDx=0;entryDy=0;labelBackgroundColor=none;" edge="1" parent="1" source="NXOeJF4uARYYLEyeQvnC-15" target="NXOeJF4uARYYLEyeQvnC-10">
          <mxGeometry relative="1" as="geometry">
            <mxPoint x="468" y="192.25" as="targetPoint" />
          </mxGeometry>
        </mxCell>
        <mxCell id="NXOeJF4uARYYLEyeQvnC-15" value="Website" style="shape=image;verticalLabelPosition=bottom;labelBackgroundColor=none;verticalAlign=top;aspect=fixed;imageAspect=0;image=data:image/png,iVBORw0KGgoAAAANSUhEUgAAAIAAAACACAYAAADDPmHLAAAABHNCSVQICAgIfAhkiAAAAAlwSFlzAAADsQAAA7EB9YPtSQAAABl0RVh0U29mdHdhcmUAd3d3Lmlua3NjYXBlLm9yZ5vuPBoAABGjSURBVHic7Z3bbxzJdca/qu6e+4X3m8SbriSV1a7Wu3a8WiBrGF7DdhADDjbAIkAMJA6Czd8QA05iJE92gDzmJchLECfIJkASIF7AWMcWkN1otbJkSSRFSSTFm0iKnOHcZ7q7Kg+j4Ux3V8/0DEfSkFO/J05PVbO666tzTp2urgEkEolEIpFIJBKJRCKRSCQSiURywiGigx/89e1eBNTf4oxPEPDgi26UpHk4M9XNlHHVfpyC5QlV7qum/nf/8sMvLdu/twjgg7+5fYYz9YeE8PcAqM+xvZI2wzjH4mbG9XtCgKCmrgT89Lsf/uD1X1SO08off/Kje98EV24Swt+H7PwTB+dArmRMJTP6z7/z/c/+rHKcAsCf/ujXb1HCPwQQe2ktlLwQGOckkTP+8jvfv/k9ACDv/eCubyCGBQDTL7ltkiPQyAXY0RSq94TCfXQgTv4AsvO7Dt1kmsEKf0vB+e++7MZIXg4Fnf02BfBaK5UJuPeyxHtZNFNWciR0g/WpAAa9ViCc45XkIr749CZiegYJXxzXht7EUkzsQa5OPcS7F+bRH85hOx3Ff86/gpsbp4Vlwxf3Ebu8CyVagpH0IfX5CHIr8ZYuTOINg3OFAlC8VriSuIN3N/8HPaUUKGfoLybw7bWPcCHlyC/gnbNL+P3Xr2MwkgElDKOxA/zxl67hyqk1R9nI7B763l6HGiuCEA6tt4j+r64iOHVwpAuUNIDX5AG88OWdz4XHf3PXefwbM3eEZb8xc9dxLHZlW1g2/rr4uKR9eBZA0MgjaBaE3/UVkyC86rvDviKi/qKw7Eg0ZYkfqN+EEjSEZdVYUZyrlrQNzwIoKAEUqF/4XdIfByfVrsqVfMiWxGV3M1Hwmm5lRQWsKE48GilfE6GmpBU8C4ATgk8HxROGTwasxzkIfro4Kyz734tzjmOpW+I4NH1r2GvzJC3SVM7/s4FXARB8ce8WgkYeaS2Ma0NvYiF+zlH2Zw8uAgC+dmEeUX8RyXwQ/3HvMq6vTTrKpu8MACCIvrIDJWjAzGk4uDGM7MOeli5K4h3ywY/vtmRlfWYJJcXnqWxA1VEwNG8N0kxw3fPERPKMZlPBFZqaBdTitfMBeO58ALLzXzAtC0ByMpAC6HKkALocKYAuRwqgy1HfmO3NU0rkyt9jjsk4iNrsUk4O8nBHl9nWEwDnQMIlpV4P6QK6HCmALkcKoMuRAuhypAC6HCmALkcKoMuRAuhypAC6HCmALkcKoMuRAuhypAC6HCmALkcKoMuRAuhypAC6HCmALkcKoMuRAuhyWhZAKqvj4XoGxRLzXGf1SQ7X5xNIpHTPdXb2i3i4noHJ6q9d3d4rYmUrhwbFDuGM4+6jA9y8n0SxZHqrw4GVzSzWd/J1yyVS5Xujm97vzYP1DG7MJ5DOer83G7t5LG9mPV+ziJZWBe/sF/GPP30Mw+ToiWr47rcmoan1tfRwPYN/+/kmAMDvo/ij35lCKFB/FevCShr/dW0LHMCpoSDef3dcWO7mYhI/u74DAJibjuGbV0caXsPHN3ZxYz4BADg1GMT7Xxefu5aPPt3G7aXyvkVvXe7HW5f7HWVWNrP48OMNMA6MDgTw/tcnQBtsc3J76QAffVreDicS0vC9b09BVepXujGfwMc3dgEAM5NRfOvt0Re3KnhpLQPDLOsmmdaxsNL4teRbS9UNn4ol5qnO/93dP9whZGMnj2xevJXM/Eq6+vdyCgcZcbkKhslx52G1PRu7eewmxVvaVMgWDPz6Yerw8+LjtLDc4uP04YjcelrA6la27nkB4Ff3k4d/Z3Jl61EPxoHr9xLV/7mWAW/RCrQkgP649XXvhZWUS8kyuYKB5a1cU3X2kiXsJKqdEvQrCLpYjIGa9nAAC6v1z/1ow+m6FlfFHVrh/moGvMbWDsTFW+D0xazHa8Up4qntOsttqS+Ate0cMjWDoT+mgbS4mVJLAjh7OmIx+WvbOWQL7qNu0XbzgPLoOKjj7+ZtnTg7FXU1pRcmrXtcLza46fceOb+fX07X3Y9oftnanpmpqLDczGTE0hkPaqyll/MCZYGWdPf4wV5ndqr1Pb5bEoCmUpw9FT78zDhw/7G7au89cl4kR3lUubFg60S3Gw4AEyMhhGusw06iiL1kSVi2UDSxvOk0ywcZHTt7YjeQyurYelrdIc2nUUyPhYVlo2ENY4PVN+1KOhP+P+CZtRJYQsPkeODiBkzGsbRWPR8BMPOiBQAAF6cils9uoy6Z1vFkT7y93LyLG9h8WkAyXbUOsbCG0UH31xcpAS5M2Nrj4qPvP3afUbi5jnuPrNbh4mSkbpB2cdIq1gUX97Kxk8dBVmw53dxA2X1VZy2jg0HEI63/vEPLApgei8Dvq1bf2MkjJTDp88spV9O6s19EIu2sYx8Vs9PRhvsFXrRZCLcY457A5B7WWc0I2+poT4MRNzsVBanxV4/WstANp0mv15blzSzyRef0dH7ZKox6ltELLQtAVQjOnaqOOg6xau2jfLDHGiTZLQfjzvN4uchTg0FEQtVgcD+lO4KrVFbHxm51Du/TqGX0pG2mHigHaU8Pqu4kHFRxejhUty1Bv4LxoarF0k3miOxNk2PJ5jZr7w1jHA/Wra6jpDM82qjWIZTg4qTV8jXLkTKB9lFnj6Sf7BWwX5P0iYRUvPOGdU9A++h6/CRnme719/gcohFBCDDbwC3Nr6Qt06Vz4xHMTltHs709zuAv0nBeXy5nPe+8bdq7smUd4SP9Abx5qbdu+5fW0paAcmrYGvu0wpEEMDUaQsBX3dXryV7BYtLtJm5uOoaJ4RAioWqjnx6UsFczwuwdMNdEgGP3vfMrVt9t78y56Shm7DOI1czhPF4UpNnLu3FhPAylJk6wd/i9ZWvnzk3HcO60NbZY3c4hVzO7WrCb/+mjjX7giAKglODCpHjUiUz53HQMhADnx611KhG/YR4twh3pD6A3WnUDtdH7brKIpzUzg1BAxeRwCAM9PvTHq1veZfMGNp6lejdtQVpPVMPIQMBTWwJ+BVOj1ZmCaXI8fGbSS7rVJVBSDix9GsWZWrdaE/HniyZWtqu5FFUhOHf6aP4faMPDoBlHxFseMatPsg5TPtBTvtF2n16ps7x59AjX6ZbK57ZPRWenI4eBmv0aKnXs8cvsVKypzavt/rkyOO4/tuYGJkfCCAdVYZ3K4JhfSVtyKWdPW4PwVjnyGcbtJj1ZNukLtmTLpRpfOzYYRCxcHamJlI6d/WJbIlyHSV/JgDGOBZs1qo3kL0453YBhciw9tgZhzbbHbtJXnpl0u2ucOVM975nTYUuSbX0nh0zOaCov0gxHFgARzMHvPDzAUo2JI7COTAKn0m8/SLYlwrWb9EzewCd39i1P2XqjGkb6q6a8L6ZhqLcaaOaLJn75q6eW7OZQn99yXi+ITPrNxQOs15hyTaE4fzpi+Xy25jPnwGcLCWzZZi9uiahmact6ALsJ/WwhaUllnhoKIh62Pj+4MGGtc2vpwGoWjxDh2kfH/97Zt3yem3bGFXbX8flCwvK51XTrjG1m8sndfcvj27PjYfg0WrfOjfmEJZi9MFE/EdUMbRHA6GAQ8XC1s+x5f9ENHx0IoKcmYLM/zZo9QoRr7yx7e2YE7ZmZtPr32vYQwBHseuXMqYilg73cm+mxsMW/O+9N+37fsy0CKN8gsU9SFOdMocLFCXGdo0a4PVENw/3i3MHYgHWmUCEeUV0jfJEF80r5WsTXH/QrmBxxJpUUSixuoJZQQMXEUPt29WvbkjA3E3lmLGzJFdRiN7sV2hHhus3XRaP/sD0ugjzqiHOLZWYmo5Zcgf074fGpiCXNfFTaJoChPj96Y85RMjvtPpKHesWBVTsi3JnJiGPK1iiwnJmKOJ6rU0ocQW6zTLsMgtkz7sKyJ9kO67TR/ANtXhRqT9rYo2ARdtfRrgjX/lgWAKZH6weWkZCzztRoCEH/0X7DoCwi6zXFwhpG6ySVRHXiEevspR20VwCT1qd2Mw0em4rqNHrU2lR7bNZHFHDZsbuyuToWrKm22M576WzjpJKzLc0lorzQVgH0x324+uoA/D6KsYEA3ro84K3Oa+U6o/0BXPVQxyuvnI3j/Hh59dKlM3HXQLWW3zgbw/nxKDSVYu5MzLHaqFUmRkJ4faYHPo1iajSEN2Ya/x7SuL3ObPt/Q0nuFXxCkHsFS1qiIwVAWl3jLGmao60meA4EkUWQZQCqwKB+5BCCweUviT0vOk4AKnv2AIaZUFkOMeQBqqJAw8hzv/wp2TbTcS6gSO3zXA4wHSGWwrA/j7hWgo96f+dOUp+OswA6/OAgll8YBwDGGMBMhChHiBowOEGeqcibCkzecTo+NnTcneMAdJefMDKN6jN9lXBEFR1DvgL6tCJCiuEQjaQxHWcBAKBAgvDxnOO4aepQuQ/2hL2fmvBTEzGVoGAqyDMFRSYDRy90pAAMooITFYTb3prhHMw0QFXxo1kCjqBiIKgYMDlFninImyoM3u4EaufRqu3rOBdQoUDEDz1Ms/6r3xUUwhBRdAz68ujXCghRA/QEuwjeosg70gIAQJEEEUQWdm0z0yjnPZt4H9pHGXy0hBgHilxFzjx5LkJnJ0wADBQm0aBw51u+pqlDUZtboAmUNRMgBgLUgAmKvHlyXETppAkAAAo0iLApEIDRmgBqUcAQUcpuQucUBYMix1SwzvWKrpRMAuMkCqDE/QgT4lgVyRkD5wyEtKezVBjwGTn4AHCqoUgCKPAgjkO6yeQEWaN1d9bRcueEQHcLBg3vu2nV/R+MoVTIlUXGOYhZQsBIoZftIgjxvgadgs4IUkWl5f2BgA4XAADk0Tgp1CqcMZSKOee6awCcM2H80QnojCBTUpAuKUee16gHpU6PhhVEVAWU2zZLqOQElNa8GOfunQ+UcxGbeg942xdhtU7ZSLU336maLQYPL5IUC6GHOLdZMQ29JQFwXmP2BRhEw2ppsKM6/3nR8S4AABKmeJUwY6ZrJ7ohO9/KsRCAyRWUiCD9y7nnzGC5uOx8O8dCAACQdLECXoNB2flijo0A0mYIXJD+5cwsrxWog+x8dyil8G5DXyIcBHkuzgnwOlZAdr47lHCDUvD1l90QryQM8WtmJhNruFHngypd2/kAoBA8pirh//CyG+KVPPeBEWfegjNWnhHUHmvQ+VRR4AuEMBrs7Gzf84X/PQGAm2ssaXASf9nN8cKQeoAYcW5IqagaVF/ZRXjpfNUfOhz3iZKGzXz73rk/DqgEiSvjpI8++/Q1SvhxePaBfVPsBpihg3MGzsy6nU+otfMBoNenYyxY/1dAThKEwIz48VXg2Szgyii5rnHzK5TwjreHBldgwJkT4ABK+Wz9zicEnJnggtxBt4hAIcirzHjn/BC5CdRMAy9PaL/gCun3K+yfFYKOvhNJ1vz+AYQQ8GfC0It5mKZz5nCSRaAQ5H0K+wlTMPDapHatctw1/L27yueYhi9wk42+mCZ6h3LmO+3b+XPOvb0QwAndp4REOTMtpkPzB4XPEgoGvbWeC/0TcCyWBNSFKHSL6rhxaZLcE37/ohvULg62N3/JGHu7UTlKyWKRaG9ohtFPFHKXM2tKUfUHoCi1u5WVA0hK6f3Y4MglQsixyJO0yrHJBDog5K8aFal0/tDQUKZ3bGyVEOUKodRi441iobzQFNbZAzPNC6mn29eEJz5BHFsLwDknyScbKQDCaUFt59ceP9jZOc+5cYszZpn3EaoAzLQ8aydUOegZHm3/thwdxLG1AIQQTin9d+F3Lp0PAPGhoSVC1FftloDbO58QxhX6h21udsdxbAUAACDmXzgOUbJYcun8CvGhoSVuYpZQRfhrToQQBk39vd6B4Q/b2dxO5Ni6gArJ7Y01zvhpwFvn15LY3Jy0B4aVzu/pH/7X59XmTuJ4WwAAhJMfl/+gdwpc+YLXzgeA3rGxVW7ySxVLQAhhXFXf65bOPxFwzsne9vqX+d27Lb8pktjcnDzY3flJenfrK+1sm0QikUgkEolEIpFIJBKJRCKRSCQdwP8DHCN1azWI2zwAAAAASUVORK5CYII=;" vertex="1" parent="1">
          <mxGeometry x="257.5" y="150" width="85" height="85" as="geometry" />
        </mxCell>
        <mxCell id="NXOeJF4uARYYLEyeQvnC-22" value="Caregiver" style="shape=image;verticalLabelPosition=bottom;labelBackgroundColor=none;verticalAlign=top;aspect=fixed;imageAspect=0;image=data:image/png,iVBORw0KGgoAAAANSUhEUgAAAIAAAACACAYAAADDPmHLAAAABHNCSVQICAgIfAhkiAAAAAlwSFlzAAADsQAAA7EB9YPtSQAAABl0RVh0U29mdHdhcmUAd3d3Lmlua3NjYXBlLm9yZ5vuPBoAABgCSURBVHic7Z15dBzFncc/1d1zaUYaaWRLtiVf+MC2bPnC2AbjxGAHkwABAoQQyC5ZIFmMYSG8sMkLG8PCezk4kjWQkJAXNoEcBFicgGMOAzbgA3xh4fuS5VOSLVvHSJqju/YP3dYxPTMtdfv4vOf3LKm6+tdV367jV7+qFpzhFBc/4NdFpAiDiRLGCEGBhEIE+UgyATeQDUSASmCngJ0GcoeisI5Yv0+3bFkUtfUhehFhtwHWs0gZP+nYbMPgSxIxT8AUQEk1NwENElYhxBJFj7/++efPHrDQWNs5YwQwZuKC0YpU7hTImySioJduI4FVEn5T69f+dnD1Uw29dJ8+47QXQFHRwolS5UfAdaTxpqfACQHPq8Qe37z51xV9eF9LOW0FMGbMglzFpTwmBLdLUG00JSzg2YjKz3dvXFxpox0pcdoJoKhokVtqxxZjcAdCOMd+iRSCF9Fzbz+dBo3OKUATFBcvLIzDKmCw3bb0wNGIpl+yZ8Ozu+02xAx92WemRdHEey+PI3fh7MoHGOCNq1uLixdeZbchZrCz7zTN2OJ7bgL5GgiX3baYRDXgpn79Zhw6Vrl2g93G9ITjBTBu4t23COSLIE6b1qoZIRR5VV7+jNLK8rWf2W1Mdzh6DDB+0t1flJK3pTxt3vxOSDAwjPnbPn/mHbtt6QrHCuD84ruHK7BRIIJ222IBYR05Ycfmp/fZbcipOLJZnTr1TpeGeOkMqXwAv4J4tahokdtuQ07FkQJojLl/LGGm3XZYiYDJhlL1I7vtOBXHdQFjJ90zShiyBPDYbUsvEFOlLC4peXq73Ya04LgWQBjyWc7Mygdw6UIsttuI9jhKAGPHL5gHzLXbjlNRFcG1Fw3mkgn5VmQ3d+yEhY55Rs1uA9ojFOGoPlJTFa6YNoh/u2IkQ/P8LFl1gA9LytPPWOFh4N30M0ofx4wBiibeM0dK+Z7ddgBk+lxcfdFgbr1sGPk5vtbfH6ys56r/et+SexiSL24vWbzCkszSwDEtgJQssNuGoqFBrp89lPkXDMLr7uwkLeyfQX6Oj/IT6ceBKHAXYLsAHNECjBmzIFdxK4ewYfA3fGCAeZMHMm/qQEYOykyY/id/3cJfPyi14tbRuMtdsHP9E8esyCxVHNECqC7xLdlHlR/wakwamcPUkbnMmpBnqtLbM3fyAKsE4NZi0ZuB/7Eis1RxhAAk4htW5+lxqRTk+ijol0FBvwyG5PmZeF425w8JoqYRRzJ5ZIhQwE1VnRUxH9J2AdjeBYycvLC/W+coKU5JhRD85YezGJIfIBrTW3+fldF760dPvbaNP7yz14qsDI3YQDtjCm33A7gMMT8dOy4a15/RhVl4XQpZGa7Wf73JDZcMtSoaTdGlZqtPwHYBCMn8dK6/7fLzrDLFNIX9M7hwTK41mQmR1vOni+0CADk71SuLh2czdZRFFZEkd1wx0pJ8JHzBkoxSxFYBjJ76vX5AYarXL7h6jIXWJMfUUblMHRWyIqshzeVgC7YKwB2PTkn12kvG51nXDKfI3V8935KxgBqNTrLAnJSwVQC6IVN6cFUI7r3Ovre/hUkjQlw53YJdaILJ6WeSGrYKQBFifCrXffWiQkYMTM6B01vce80Ygv70Zh0KTLDInFTubR8SOTTZa7IDbhZcY//b30Ju0MOPbylOtysYYpU9yWLzLCD5Xbz3f20soYCzQuvmTBrA17+QtJZbkYLe2s2cEFsFIGBQMumnjsq1ps/tBR64cRyXTkotYETIs1AAY8YsyJXgS5yyCa9LYdGtaTe1vYYqBI/dNjmlqaEE34QJ/57TC2YlxDYBaJorL5n03/nKaAr7ZyRMZxhQVReltDzMwcp66hrjKdmnG5JjNRFKj9ZxpKqBhoie8BqvW+XphdOZM2lACndULYk3SxbbVgN1JeYTSejvy9O79xdFYjpvfnKYd9YfYUvpSWobYh3+Xtg/g8unDuL2K0Z2GejRnq1l1fzqHzvYsOsE9ZGO4hmW72fKqFxumD2UMYOzurze61J46ObxvL/pqMkna8JQNW9SF1iEjcvBSlIjObfWddO/aU8VDz6/gYqTkW6vPVhZz++W7WZInp+rZ/bseHzkj5vZcbCmy7+VlocpLQ/z2kdlzJ82iIe/NRG31lnEfl8K00Kp2zKytU0AUuJJpjsP+DqbWlUT4Z5n1lHbECPT52LSiByG5Afol9lUlvXROAcqwmwtq6GsItxlZZ2KpgrcmsKE4TmcNyBAfsiLKgSRuE7FyQglpSfYc7iWZZ8eJpjh4j9v6uzKcGsKHpdKJJa422hBSntC4W0TgJCG+9QNv+f183DZ2Cz+9MlxwhGj9fd+r4qmdq68j7ZUcuWMAq6aUcjowVk9BnocqAiTH0o85vzZHVPJCbjxebrvKmobYny8pZI31hwiEtPxuDqn9fu0DgLwuRRmjPCz/1iUvcc6t1ZnnQDQFDdtdcz04X6euHEwHk0h5Nf46bIjrX/Lyui6dbx6ZmHCJr2FwXl+U+kG5SYWSabPxfwLBjH/gu5nsZlejaqapooWQvDcrUMZO9BHJG5w/8sH+GRfuOMFqj0CsG0WoEpaR2pel8LDVxfgaW6i547L6jDdSzbA4x9rDrBiswXx+0B1OMYf39lD6dG6pK5r7x4+P9/L2IFNwvJoCouuLsB76pgmbthyrpB9jiBdtJbo5UVBcgNNjZERi5OlGBSG2t76fkHzA+S/rz7Af72wift+9Slrt6UfcPvQCxt58tWtfOcXq01NBVtob/OUIT6MSAwj1jSr6B/QmFvUceOzFCSnMIuwTQBxYdS2/H/WyEDr72PVYRrKKhmb31aABSaa5RZeWbEfACklr3y4Py0bj1Y18NHnTeF6FScbWVFifmqXn9Nmf2FQo6GsktjJtmZ/1ohAh/RCqLXYgG0CaK/4kXlt3Z87JxNUKHC1zeXNOIBa2H24bQq350h6ZbrnSC1Sytaf9x42n9+AdjuK+hkRUAXuUNsK5sj8jl2+VJSzqwWQLk9raYYy2saiQlVwh4Lku9sKflSBuaVfKSUxve26SNR8k90V0ZjR4efGU37uibx2LUCepuMOZSHazWTaP3Nz5mdXC2BUR1sfWGm2InaijvCuQ0QqTjAo0Gba6IKuvW6nIoRgQKit4Af1M99ydMWpM4LCXPP5DWqXNi9DEKk4QXjXodZu4NQpazx+lrUAu3cvjgioBqhpaHpT1QwPrlAm7v5BhodcCCEYnJdBKMv8DOmySQNb/z93cio++TZGF2a1dj+qIphdbN5df97AAEIIgj4Vv0/D3T+IK5SJ6msa3NZ2HFCe2L17cfeuzF7E1p1BBuwXUHzwZJS8LBeKx4Xb0zR9CtY2EMrQuGhsUmtG3HnlaMoqw2RluLh+9rC07BNC8Ni3p/DkK1u59uIhDDDhSGoh4NUYGPKS7zYQqto0tmnHgaq2WZ8E246gt3lrmCgDWbzlUCNThnR01BiGweCQm6/NMhEsIyUyFgdD4tMNnvhWMSgKwjBASeMoRCkpLgjw+4XTQDeQ9RFQBGgqQkuc78ThOYxU65BG57HDlsPtdxiLstSNTA9bBaBAmQRW7qrl1pltEb7SkMiozrenZzOqsIcBoGFg1DYgo3FoN1rvgKqg+L0Ir/m1FmlIZLgB2RCj6RMBXecrMjwovu67p+tmDGBEYwVGdS3SkAilrd9fuauty1fANgHYGxImjAMAmw7Us6u8sd3vQfV7mD480G3FSkNiVNUiI7HuKx9ANzBq6pve3s6ZED14BKm3e0Nlc74NUbqt/OZ8ZW0DRl33ZwVMHerHn52B5vd02IW5uyJCyaF21zWXgx3YKwApWj01z37QdtS+EAJfQT8Ut4qMdeMhlQbS6KGCTk0e7zwljBwup37nbozGduKTEqT56V5X+bZgRBtRPBregn4dXNuL3yvv4F/AOEtbAGG0CeCj3bX8+ZPjndKUHanu+lpVRfGbcxELrXNaGY/TWFqGFspG9beb3ikKit8HZtaqVQUls+uBoZSSdds7P89La4+zak/HGZ8U4uxsAaKq2sFX+9S7FTz1bjnH6uJE45I3S07yxBul3V4v/F7U3CyUgA/hdjUNzBSlaQDo0lB8bpSgHyWUCacsJzfs2gvROL5RIzrnm+FBzc1sl68CqmjOV0U056vmZiHUrgeDuw7V8sDL+1laUk00LjlWF+fJd8r55fLOO8EVQ+/+IXsZuyMsxbjihfVAt6+yx6XywRNfwuuyTqvxE9XUbSzBe94QvMN6JyT/peV7efyVbWaSxraef9TH3/6WntsyRezeHSxJMAKOxHQ27urclKZD5OAhFJ8H79CU96UmZPU2kzYL9ttV+WC/AJCS0kRplq07bO09DQMQyYz1kqKqLsra7SaXok08f29iuwAEJDxCffnGIzSmubDTHm9hAUZjI7Vr1xGrtP6QrrfXHSaum1OXNPH8vYntAkCIhIv24UadFVac0NmMlptDYEoxwuWiYbv133ZauvZQEqkTP39vYrsAzL4Bb661thvQgllkTptM5sUXWppvWUWYktKTptMr0jjLWwBkqZlUH28pp7Q8nDhhkgjF2iL403vJ1aeQSqmlBiSJ7QJQDcVUiRkGvPDWnpTuodfVUb9zT0ePX5dIokfKadid2ktZVRNhyarkfDq6x9zz9xa2C+Dzz39ZAdSbSfvmJ4c4UpX8Ob0yrhM7WkHN6nWES7YSPVqOXlePEYshI1Hi1TU0lpZRs3o99dt2otfW0eM6QDf84d29SUUNAY3b1v8iuT1kFuOEk0IlyP0gxiZKGNcNXnhnDz/4enIHi2jZQbIumkbk4GFiFZXUb93ZOZEALRjEN3I4rv4hkvWRVYdjSQehCthPKkqzECcIAJoGggkFAPDqyjKuu3gI5xeaCxNrQWga3mFNnj8jEsGob8SIREBKFLcbJSsTxZV6cTyzZAfhxuSmqnZPAcEBXQCAwPxASDckj75Ugt7TEnACFI8HLSeIe0Ae7oH5aLk5aVX+5n0nefXjVGZzojTlm1qEIwRgmJwJtPB56cnW+H+7icUlD//hM7oI+kmIkMk9d2/gCAGkUhCLl2zn0HFTY8de5TdLd7I3yW1jLRjKOQEAoMjk+8Jwo879v15vqYs4WdZsq+T3y1KbmgIoiHNjAICox1OaynU7D9bw0P9+ltZ4IFV2Hqzh+7/dmNa9VRkrtc6i1HCEAJo/m5LSzph3Nxzh0RdLUuqDU6W0PMxdT3/S6SiaJKnfvPnXlYmT9S6OEEAzKY/qXl91gAd+2zfdwYbdVdz2+CqOV6e5j6NpGdhWHwA4SwBp9YfvbzrKDY+uZOOeE1bZ0wHdkLzw1h6++8s1nLTgczFmlsH7Aqc4gkDKUlOBmD1wsLKeO55YzVUzC/nulaM6fPMvdbMk739WztN/38G+I9Zt3zMUewNBWnBMCyAUa1bFdCl5fdUBrnzoA/SqY8jG+p73DXSbURxZV4NecYTvPbfe0soHENJ+JxA4qAUwYJ+VEapx3SBaX4+rvhYhVPB6UDw+0FygqE3RvM0RvdLQQY9DPI4RaYRoBBlt6uNjpLG1rAcE9sYBtOAYAYgkvYFm0KXAJUBKHRrq0RtOdRwJEo3D4r00TNNtjgNowTFdgGrES63OM/HMsOfaFW4Ph6O9dIBnzL69AO1xjABKSn51AjAfS2WCVBtv4XKjhvJQ8wbRKHrlE3S127c/Y22se4o4pgtoQpaCsOz7Oaoizc+0hUB4M1D8mQhv2+yhqxNK08UJy8AtOEsAQpQisU4AZmpfc6FkBFD8AVA7F0fQb/0RvgJnTAHBYQKQiH3CIudYYciL6GrnhwDh9iG8PoTXi3D1fPxMbqYbv1dNOtijJ4QDFoFacJQAkMZ+q7YrThuR1VTZLjdoLoTLjXB5EG5v0ykfJhFCMDQvwNayrncpp4Q0nBHMgMMEoMA+q2ZdWcEAWsEwrBDUhPNyLBWA4aAxgGNmAQDCUEutymvWhHysak0uS/FbQN2hqFqppRmmgaMEEIt5LHkzcoMeJo+y7hM8U0blJnVUXSJcDhoEOkoAO3b8rBZIa37s0gSP3Dqxx28HJIuqCB6+tRhXN18tSZITmzb9wlJ/Rzo4SgCQ3hRp9oR83nhkDhcV9bfQoiZmjc9j2WOXcdWMwnS/XFZqkUmW4KhBILQ6SaYmc83YIUHu/9o4Lhhtyde8uyWU5eGRf5nI9bOH8uQrW/lsb/KxB05yAoEDBdDsDTSVsn/Qy3e+MoprZg22tMlPRPHwbH7/wEze3XCUp17bltR2NWHzgRCn4jgBCKmUStHzZNDrVrlpzjBunz8Kv7d3lmsTIYRg3tSBXDIhj7+8X8rzy3aZcxYpzogDaMFxAjBUWSq6WcYTQjB3ygD+49qxpr7t0xd43Sr/evkIvjy9kN8s3cn/fVzWY4CqEzaDtMdxAlBE186gyyYN55qZRRQNU8jJsm8vQHfkZXu495qJXDqhmDfWbuWf6/d2mc5wkBsY7D8mrhOFM+/zZYXjYZptO78wl2/Pm4Yq2s4MzswwGJwfJz+koyi2B9YSjQn2HHRx5LiKlE1Fqihhnn/7E7aWdTyDSI/4spqnu47AcQIAGFe8sDzb7827+8rphAJ5dHcirEuD/FCc/Fyd7EDftwoNEcHBCheHK1XieueiVATURo/z9JLVVNY0ABzbunmx9XPUNHCcANate861fon/8PD8wn7xuHk3hdcjyQ/p9AvGCQaMdAOMu8WQcKJa5UClRlW10vrG94SmSvZVHODZN9dv+GzDU0lNcXsbRwlg05+XP3iyWltU3yjSisPSNMgO6AQDBsGATmaGRFNT6yok0NCoUFWrcPykyokaFZMnwHXC7Y4bA3JYNP4bl/53ajlYjyMEsPnF5VfUNGi/qwmLgYlTp4bHLcnwGWS4JW5X0z+XJhHtikA3IK5DNC6IRgV19QrhRoFuWFtM2QH9eHamfvu4r8993dKMU8BWAez6y/IR1RHlxWPVygzD4kJ2OkJIsgPGLp9PXjvp5ku32GaHHTc9/I91GRXVtc9VnlRvjsWdtx7Rl6gqMpSlLw/54tePuHGehVEn5uhzAWz+03vfP16tPNIQUWz5WLJT8bhkPDtoPDflm19cKEQCV6iF9JkAtr2y/BvHTqjP1oaV7L665+lIwGfU9cvU7xt382XP98X9el0A4ZXLBjZExc8/3eL9ppkp0zmaxgcXFkXfzPByl2/WvF79nEyv1Yhc9bIvKrPuAX4IZH24yUc0dk4AZnC5JLMnNUDTAZqL3VHPo2LOnF75sqjlAzAppYis+ucNUZm1FfgJkAWQk9mHR3ic5oQCrWWVATwYdUe3R1e9daeUiyyvL0tfyeiqZRcahnxSCHHxqX87UK6xs8z6TRZnIqMHRxk8IN7FX+Q6RYr7XbPmf2jVvSwRQP2KtwarmnwMuKW7PE/UKmzY3ksbLc8wpoxpTNRiviEN7V7vJXO7XnJMgrQEIJcu9USz1R8j5X308OEnaPKufbjRGWv4TueSyQ24tYQzwUaEeModrF4kim5M+cyalPuU8EdvD4oGlZVI+QMSVD6AW5NmHuqsJ4ly8iLlD6LVWSvDK5el7EJPSQD1a5YWasJYAST1uQ2v+5wAEuH1JFlGkumayor6NUtT+gRa0gKQ778fUHVlGTAy2Ws9nnMzgUR4UntJRqm6ulS+9ZY/cdKOJCUAKaWIeiK/A4qSvRGAp1fOWjiz8LhTfUnkhKifP8okvW1JCSC6atk3kdyYnGFtuF3nuoBEuNOJ0hTy2ujHb9+czCWmBSA/WpIJ4qfJW9WG69wgMCHpl5F8XK5ZavprGqYFEMX9Q2BQSjY1k2pUztmElu42B8GAqK48aDa5KQHINUuzEOKu1K1qQpzVK//mSOLsip5YKNe9EzR1PzOJIoZyG80+/XRQnBGB5mgsCmbNjET1W8wkNCUAIUlqYNFtPn0X53DaYlUZma2zhAJo9jJNS9siLFP3GY1FXQDAzNqP38pLeL9ECTRFXIpFi0bnhgCJsfAlEW7JnESJEtaJEMZ0a+wxc7dzWDlMEkImdNWbqZKUvH5dcm4IkBgLv38kTdRdQgFIxAhrzKHbPX7naMOwNG5SjkqUwkQLIBIOJMzSlx92Ol2xtowS112PApCrXvaBtCyK41wLkBiLyyggly7tcf9Fzy2A4bH0AAlrm7czE8u3yOXpPTqX+3Rcfq4LSIzlrWRtoMc6/n8qk92jYBCnMwAAAABJRU5ErkJggg==;" vertex="1" parent="1">
          <mxGeometry x="91" y="155" width="75" height="75" as="geometry" />
        </mxCell>
        <mxCell id="NXOeJF4uARYYLEyeQvnC-25" value="Older adult" style="shape=image;verticalLabelPosition=bottom;labelBackgroundColor=none;verticalAlign=top;aspect=fixed;imageAspect=0;image=data:image/png,iVBORw0KGgoAAAANSUhEUgAAAIAAAACACAYAAADDPmHLAAAABHNCSVQICAgIfAhkiAAAAAlwSFlzAAADsQAAA7EB9YPtSQAAABl0RVh0U29mdHdhcmUAd3d3Lmlua3NjYXBlLm9yZ5vuPBoAABM2SURBVHic7Z1pdBzVlcf/71X1pl3CVtRaLS/YWGEQSC1Z3oQlY+IxPnEYsA1M4AQMPvEZmAGGTJJhJkPAnEwyIQcmPmcc7EwcBsaExWHJgAEzE+QYWzaIONiK8SZQq7UZy5K61VtV3fmgrWVtvVRVV0v6fequenXvrXq37ttfATPMMMP0hcXbAD1xuVyFRPR1xtg6AHMA5A+ccgJoIqI3AbyWl5fXHC8b9WZaOEBzc3OeIAj/DOAeAMIkyRUArzDGvmO325s0Ny7OTHkHcLlcGwA8ByAlwkt7ieiv8/LyXtfALMPA422Alrhcrr8F8Aoiz3wASGWM7XO5XA+obJahmLIRYODNfwWxO7lCRN+YqpFgSjqA0+nM55w3Iro3fyx6JUlaVFhY6FJJnmGYkkWAIAg/hHqZDwCpoig+pqI8wzDlIoDL5SoEcA6T1/YjRVYUZU5+fr5TZblxZSpGgA1QP/MBQBAE4esayI0rU9EB1molmIj+UivZ8WLKOQBjbL6G4udpKDsuTDkHIKIcDcXnaSg7LkwpB3C5XEkATFrJJyKxubnZppX8eDAlHICIuMvluhfAeQAWrfQwxqyCIJxvaWm5h4imRAsq4W+itbW1hIh2A6jUWfUhAFtyc3MbddarKgkdAVpbW+8koiPQP/MBYCmAjwYiT8KSkBFgIOT/O2NsW7xtGeAZu93+IGNMibchkZJwDnDixAlzRkbGc4yxjfG2JRTG2N6LFy/eVVJSEoi3LZGQUEUAEXEjZj4AENHmrKysPUSUUM80oYwdCPuGy/xBiGhza2vrz+JtRyQkTBHQ0tJyN2Nsd7ztCAfG2F12u/3X8bYjHBLCAQaaevUAkuJtS5h4AJTn5ub+Od6GTIbhi4CBMvVZJE7mA0AygF2J0FlkeAdobW3dQkRV8bYjCpa1tbXdFW8jJsPQHjrQt38eQHa8bYmSVr/fP7e4uNgXb0PGw+gRYAs0zHymyGCkad+N3Wq13q2lglgxrAMQkQDgYS11pPR+juSeJi1VgIgeMXLfgGENc7lcNQAKtZJvCrqR5HEh2eOCKejWSg0AzGlra6vWUkEsGNYBGGPf1Ey2IiHty5MAKQApSLvYCKbIWqmDoih3aiY8RgzpAAMhU5v5d0RI7zoFUR6ul4mSF+mXTgFEmqhkjK03ajFgSKNcLtc1AK7QQnZa92lYfF+OOm7xXkBa9xktVALAFU6n86taCY8FQzoAY2yl6kKJkHbpNGyetnGT2DytSL/0mSaRgHNuyHqAGG8DxqFETWFMkZDedWrMN/9yrJ42MDmI7sxFIK7e8gLG2GLVhKmIISMAgIVqCTIF3cjq+DiszB/E4vsSWZ0fq906UO2e1MSoESDm5h8jBUm9zUju/QIMkYd0UfIiq7MBfcm5cKfOUSMaFMUqQAuM6gBp0V7ISIbN04pktxNcjnFyDhGS3C2wei/Ak5IHb7IdxKJ2hKjvSUuM6gARr+w1BXpg83bC0tcOrkiqGsNlP1K7zyG59wv4bNnwJWUjaI44P1NVNUoljOoAY8JAYIoMrgTBJS9EyQtToAdmfze4ov1UPK5ISPK4kORxQeFmBCzpCJrTIIk2KKINCjeBuAAy9hjbCIzqAG4AWaEHmCJjduuhqMpzLeBKAFZvJ6zezhHHiXF02peC2Kj6da9uxkWAUVsBPZcfMAW6DZP5E8FIgSnQPdapUfdkBIwaAT5H/z5+Q5j9ox8qMQ6/bTZ8lixI5lQoghkAwOUAxEAvrP6LsHg7ox7yjVa+2X8JAUvmSFlETVEZoTFGdYDPAIzoOTNJfSMSeJNy4E4vhsJHrwWVRStk0Qp/0mzw9LlI6T4HW197RAbEIl8M9o26hjH2WUQG6IRRHeDE5Qd4iAP0ZF4Jb1L/KnBzoAdWTyvMgR5wqX+ARxGtCJjT4EvORcCcip7MhQia05B26XRYymOVL0jeUTKJ6GQkD0AvDOkARPQBYyNr0lwJDp9nAkTJi5Se87B4L4y6XpC8sEle2Pra4bfNgjutOKKOnFjlh9o6dI0g/F/YBuiIIdsrRMRbW1vbAcwaPJbdUpcQlUAAIDB05K0IPfSl3W7PNuLaQUO2AgYe1O9GHEuQzAdG28oYe92ImQ8YtAgAABbw/sbsab9LdLeDST7APH6wkmQFv37vYxxoOA3GGGpK5+HO1WUQBXX8Oxr5Ked/DxJtCKZkQ07N2auKIRpgyCKg762fVTHO9yJkUMic9ZVx0/9y/1G89MGfRhy7deXVuPtGhyr2RCM/cDGk1cHwORFtSrrx746oYpCKGK4I8Lz7zLWM83cRwYjggYbRM3ne+1i92T0xyycUMbADgbefuUY1o1TCUA5ARExQ6Fn0L60Km8tbDAAgcPVuTSX5yTKnZ422XMxQDuB95+kKAsoiva6mdPT2fTXXqreln2ryCY6+d38e8f1piaEqgRysIpq6/p2r+5/p+5+cBdCfYd+svU41u9SUL0CpBHBMLdtixVAOQBGG/kFEgePuGx2qVfq0lK8oTM1dzGPGaA7QpFcBSYEAJE8PwAhicjqYyayPYq6c00dReBiqDhAImvYDGD2SogFSXzeIZJCi9DuCPnj8JnpXL2XhYCgHyLhpWxeAn4x5UuW5+qQoIb9VXhY2nq3Efpy56sFL6iqLDUMVAQBg7bY/7k9vW0ygWymrAMq8ZQABdO5/jdlrNQbEOGTHZoAAfvYgWJcTAHvR2pOzPd62XY6hIgAAsI0bZcua+zcxwrdp/goJ5mTAkgwyJc4ezWSyYdBuZf4KiQFbrWvuv41t3KjdCtQoMfRL5Xa7mzHwdU/L54cDvO+CajW1EV21mLirOVKUlNl+f0Hl4KbVzSkpKZotc48Vw0WAUBhj96H/s67NJAd/q6rskJ48puISMAAgKfhbDNgN4D5VhauMoSNAKNLRvWsZ8D9qyaNgAJKnGwCDmJymajNQgbLG5LjdULX98TBcJXA8hCRep/QpPgBWNeQxkxmmjNlqiLqcPpGl/kELwVpg6CIgFFay0Q1G4X+9kwC5zw0KRL9ghAJ+yH1uRDYXhV5j5et16ctQg4RxAABQFPrPcNPKfg8UOQhmij7IMZMZihyE7As/PxXGfhW1wjiQUA4gOm7bD+DjcNIqvj6IyWnA6BU64cMYxKRUKP6wHeATsWxTQpT9gyRMHQAAGGMk1e/dzhhemSwtEY2o3Xfc8wTIF15xwGwWZO/6x/7fgjCi13BCnaAfMMYSZ/IiEiwCAIBYsflVBrw1WTomiqDgcIaLeeHvNynmD6elYBBMnPxDZAx4R3TclnBfGE84BwAAxvkDmGSxpZicPiLjrMv+Imz51qXDaZlogpgy6VLwbgb522ErMBCJ6QBlG88QsS0TpuECEDKVy1ZTDlORfVLZpiI7bDXlIYLYpB1FxGgbc9xhqGHecElIBwAAsWLTbwCEPbjCTCLSH7ljQicwFdmR/sgdYGIkPYP0mFh+2wsRXGAoEqYncCyIiClHX9wBhrDDL0kyvO8fg+/QcUjN/eMBpoIcWJZeDVtNeYSZz3YIjk1/E6ndRiKhHWAQ+dh//wOI/UhfrexfBcem7+qrU32mhAMAgFS/92bGsBtAhsaqegm4T3RsNuxqn0hI2DrA5YgVm1/lDOWMsF8rHQx4iyv8mqmS+cAUigChSMde3MCIfgCgVCWRDQT6l0Rs50/GlHQAoL+CKP3hV38Pxn7MzRZEfqsEJeAHSHlEXPatnyZaD1+4TJki4HLKy8vF5/bXWyR3NwJdnQj2dkH2eUABP0iWQKT0T94kApHSfyzgh+zzINjbhUBXJyR3N57bf9RaXl6eUF3mkZDwN+bxeMoA7CWilDfeeOOXO3furOCclwmCkPFpS1f/a08ECgYgBwOIdFLepy1dj2dlZf2wtra2S5blj7Zu3Xp0/fr19wDoYYxtSk5OblD7nvQk4SNAZ2fnz4loPoCc8vLy75vN5tWiKGYyxhjGWNQZMYyBMcYEQcgym803lJeXfx/AVwAsuHDhwo7YFcSXhIwAa9eutXi93u2c87sbGhoyb7jhBgBAV1fXiHRu3+i9eiKlp88/4v+lS5dgt/f3Jh47dqyqtrb2S0mSdmdnZz/60ksvJdSXwwFA3dmQ2sOrq6sfA/CmKIorOOe2xsZGFBQUwOfz4fnnn0dHR8dQ4oAk4xuOeeBRRgJJVvBfB09BUobrfx0dHSgsLMSZM2ewa9cuSJJkE0VxWV9f33cLCwvzi4uL325qajLkdjBjkTBFQHV19UO1tbVui8XyT5zzwSnXuPLKK+FwODBv3jw89NBDsFiGTqEvIKHR1TWmvHA42XIR3uBwrcFiseDhhx/GvHnzUFFRgQULFgydEwTBZLFY7uOc91RXVz8YtVKdMbwD1NTUFK1atepPZrP5p4IgjFodUlQ0vA1/RkYGMjJGdgS+fiz6QbrXPzo/4n9GRgbS09PH1D2IKIo2i8Xy1KpVq5pqa2uvjFq5ThjaAaqrqx8TBOGcyWT66li7dABAXV3dUNg/dOgQ2ttHLvg4crYdx851jHXphBw914Gjl13X0dGBw4cPD/0+ePDguNebTKYiznnjypUrfxCxch0xZB3g+uuvF4uLi/ebzeZvsfFyfgCv1wuv14vrrrsOubm5cLlcaG5uHpHmo/OduLZoFjJTwptRfq69G0++9hGC8siifNmyZbj55puhKAr27NmDkycn3vyTMcZEUby+oKBg/VVXXbXnzJkzhlsaZrgIUFpamiEIQrvJZFod7jXr1q2DKIowmUxYv379qPMefxDfe/FDvH/CCZpglTEBOPBpM7734ofw+Ee3IG666SaIoghRFLFu3bpwzYPZbC4LBAItpaWlWg9URYyhmoFLly7NlmV5vyAIWZOnHqapqQlz5swZ+j0WvqCMp9/+I95oaELN4jxcUzQbs1P7I0Jnrw9//LwTB044cb5j/L0CmpqasHDhwgn1jIcgCFeYzeb3V6xYcWNdXV3n5Ffog2HGAhwORwHv3x5uYWhFKxwsFgtuvfVWLFmyBF1dXdi5cyecTqeq9hUUFGDr1q1IT0/H4cOH8fLLL8Pv909+YQjd3d0A8GfO+eoPP/ywRVUDo8QQRUBlZWUa5/x3iPLTan6/HwsWLEBubi5KSkqwZcuE0wWjYsuWLVi8eDHy8vKwYMGCiDM/hEWKoryzfPnyzMmTak/cHaCsrMzEGHsVwNWxyAkt2ycq5w0if3EgENi3du1ay+RJtSXurYCioqJfENFfhR6zWiNf/3n69Gnk5uYiGAzC6/UiGAyOag1Ey7JlyzB37lxIkoSzZ89i9+7d6O2N/BNAoVGDMTbH6/Vmt7S0vKmKkVESVwdYsmTJzUQ0ai5fNA7Q29uLCxcuYMOGDcjJycGSJUvwwQcfwO2O7eufdrsdjz/+OHJycpCWloYdO3bg3LnoOpfGKDbKCgoKGp1O56gPZOhF3IqAqqqqPCL6hZoyU1OHP83HOR/xPxaZoV0RasgMhYj+w+FwFKgqNALiFgHy8/P3ABhzu81oIgAAtLW1wW63IzMzE+3t7SgtLYUkSRE32QapqanBxo0b4Xa7wTnH0aNHsW/fvqjrAONUHG2c83yn0/lSVEJjJC7NQIfDsZJz/vvxzkfaDLyc1atXY9u2bQAAWZZx77334tKlyHZny8jIwK5du8AHtpLZsWMHDhw4EJNdA83AMSGilfX19XUxKYiCeBQBTBCEf9NTYVlZGQoLw9+nqaioCGVlI/d0nqRHOmYYYz9BHF5I3YuAqqqqrxHRdyZKE20RMMgXX3yBtLQ0cM4RCARQU1ODNWvW4NSpU6MGiy6ntLQU27dvR2VlJdra2tDZ2Yn6+nrs27cPSpjLxMdjkr6D/IKCgoNOp1PXNYa6dwUrinK/1jokScLOnTthtVrxwgv9y/Y451i+fDkWLVqEs2fP4tixkRt2OxwOzJ07F7NmzRoK+3a7Hbfffjt8Pp/WJgMAiOh+AO/pomwAXR2gqqpqvqIoX9NLn8/nwyeffDJUGaysrERKSv9m3U899RRKSkpARGhsbMSDD/bP4XC73ZAkCaIooqGhQbfMH2BdRUVFcX19/fnJk6qDrg6gKMpt0Lne8eSTT2Lx4sWQJAlPPPHE0PFbbrllqF5QUlIydDwlJQWPPvooRFGcdLhXAwTG2CYAuq1z1LsSeJPO+iBJEo4fP47GxkbU1fVXsjs6OhAMDg/3BgIBdHb2D9DV1dXh5MmTOH78OCRJ0ttcENHo8WwN0a3WOTDU24ownC7WZuBEZGRkoLe3F4sWLcIDDzwAAHj66adx6tQppKamRtxcjISJmoEhKAByjxw5EtnHjqNEtyJAUZTlMMDg02AGnzhxAlu3bh3zXJzhAJYAeE0vZXoR/iY9M+j2rHRzACKKabh3OsEY0+1Z6RkB1PuO2xRHUZT5eunSzQEYY4aYAZMI6Pms9CwCtKvaTz10mz2sZxGg7kD61GbSnSnVQk8HiHsTMIHQ7VnNZMo0Z8YBpjkzDjDNmXGAac6MA0xzZhxgmjPjANOcGQeY5sw4wDRnxgGmOTMOMM2ZcYBpzowDTHNmHGCGGWaYYdry/8e82sURBPw1AAAAAElFTkSuQmCC;" vertex="1" parent="1">
          <mxGeometry x="91" y="298.5" width="75" height="75" as="geometry" />
        </mxCell>
      </root>
    </mxGraphModel>
  </diagram>
</mxfile>
